<?xml version="1.0" encoding="utf-8"?>
<!-- Generator: Adobe Illustrator 16.0.0, SVG Export Plug-In . SVG Version: 6.00 Build 0)  -->
<!DOCTYPE svg PUBLIC "-//W3C//DTD SVG 1.1//EN" "http://www.w3.org/Graphics/SVG/1.1/DTD/svg11.dtd">
<svg version="1.1" id="Calque_1" xmlns="http://www.w3.org/2000/svg" xmlns:xlink="http://www.w3.org/1999/xlink" x="0px" y="0px"
	 width="800px" height="600px" viewBox="0 0 800 600" enable-background="new 0 0 800 600" xml:space="preserve">
<rect x="66.5" y="147.5" fill="none" stroke="#EDEDE5" stroke-width="9" stroke-miterlimit="10" width="664" height="304"/>
<g>
	<path fill="#EDEDE5" d="M307.563,257.239v74.2h-7.42v-61.904l-23.744,35.933l-23.744-35.933v61.904h-7.42v-74.2h8.162
		l23.002,34.768l23.002-34.768H307.563z"/>
	<path fill="#EDEDE5" d="M359.82,333.877c-5.3,0-10.424-1.025-15.37-3.074c-4.806-1.977-9.01-4.805-12.614-8.479
		c-3.675-3.604-6.502-7.808-8.48-12.614c-2.05-4.945-3.074-10.069-3.074-15.37c0-5.3,1.024-10.423,3.074-15.37
		c1.978-4.733,4.805-8.938,8.48-12.614c3.604-3.604,7.808-6.43,12.614-8.48c4.946-2.049,10.07-3.074,15.37-3.074
		c5.3,0,10.423,1.025,15.37,3.074c4.733,2.05,8.938,4.876,12.614,8.48c3.604,3.675,6.43,7.88,8.48,12.614
		c2.049,4.947,3.074,10.07,3.074,15.37c0,5.3-1.025,10.424-3.074,15.37c-2.05,4.807-4.876,9.01-8.48,12.614
		c-3.675,3.675-7.88,6.503-12.614,8.479C370.243,332.852,365.121,333.877,359.82,333.877z M359.82,262.222
		c-4.311,0-8.41,0.795-12.296,2.385c-3.887,1.59-7.351,3.94-10.388,7.049c-3.11,3.04-5.459,6.502-7.049,10.388
		c-1.59,3.887-2.385,7.986-2.385,12.296c0,4.312,0.795,8.411,2.385,12.295c1.59,3.888,3.938,7.352,7.049,10.389
		c3.038,3.11,6.501,5.459,10.388,7.049c3.886,1.59,7.985,2.385,12.296,2.385c4.31,0,8.409-0.795,12.296-2.385
		c3.886-1.59,7.349-3.938,10.388-7.049c3.109-3.037,5.459-6.501,7.049-10.389c1.59-3.885,2.385-7.984,2.385-12.295
		c0-4.31-0.795-8.409-2.385-12.296c-1.59-3.886-3.94-7.349-7.049-10.388c-3.039-3.108-6.502-5.459-10.388-7.049
		C368.229,263.017,364.13,262.222,359.82,262.222z"/>
	<path fill="#EDEDE5" d="M467.835,257.239v74.2h-7.42l-40.917-61.904v61.904h-7.42v-74.2h8.162l40.175,60.632v-60.632H467.835z"/>
	<path fill="#EDEDE5" d="M594.503,312.996c-1.839,3.463-4.135,6.571-6.891,9.327c-3.675,3.675-7.88,6.503-12.614,8.479
		c-4.947,2.049-10.069,3.074-15.369,3.074c-5.301,0-10.425-1.025-15.37-3.074c-4.807-1.977-9.011-4.805-12.614-8.479
		c-3.675-3.604-6.503-7.808-8.48-12.614c-2.05-4.945-3.073-10.069-3.073-15.37c0-5.3,1.023-10.423,3.073-15.37
		c1.978-4.733,4.806-8.938,8.48-12.614c3.604-3.604,7.808-6.43,12.614-8.48c4.945-2.049,10.069-3.074,15.37-3.074
		c5.3,0,10.422,1.025,15.369,3.074c4.734,2.05,8.939,4.876,12.614,8.48c2.756,2.756,5.052,5.866,6.891,9.328h-8.692
		c-0.566-0.777-1.131-1.484-1.696-2.12c-0.566-0.636-1.166-1.272-1.802-1.908c-3.039-3.108-6.503-5.459-10.388-7.049
		c-3.888-1.59-7.986-2.385-12.296-2.385c-4.312,0-8.411,0.795-12.297,2.385c-3.887,1.59-7.35,3.94-10.388,7.049
		c-3.11,3.04-5.459,6.502-7.049,10.388c-1.59,3.887-2.385,7.986-2.385,12.296c0,4.312,0.795,8.411,2.385,12.295
		c1.59,3.888,3.938,7.352,7.049,10.389c3.038,3.11,6.501,5.459,10.388,7.049c3.886,1.59,7.985,2.385,12.297,2.385
		c4.31,0,8.408-0.795,12.296-2.385c3.885-1.59,7.349-3.938,10.388-7.049c0.636-0.636,1.235-1.271,1.802-1.908
		c0.565-0.636,1.13-1.342,1.696-2.119H594.503z"/>
	<path fill="#EDEDE5" d="M655.027,257.239h7.738l-23.851,74.2h-7.737l-23.956-74.2h7.844l20.034,62.116L655.027,257.239z"/>
</g>
<line fill="none" stroke="#EDEDE5" stroke-width="8" stroke-miterlimit="10" x1="111" y1="303" x2="170" y2="303"/>
<line fill="none" stroke="#EDEDE5" stroke-width="8" stroke-miterlimit="10" x1="152.101" y1="273.638" x2="173.109" y2="305.571"/>
<line fill="none" stroke="#EDEDE5" stroke-width="8" stroke-miterlimit="10" x1="173.109" y1="301" x2="152.101" y2="332.579"/>
</svg>
