<?xml version="1.0" encoding="utf-8"?>
<!-- Generator: Adobe Illustrator 16.0.0, SVG Export Plug-In . SVG Version: 6.00 Build 0)  -->
<!DOCTYPE svg PUBLIC "-//W3C//DTD SVG 1.1//EN" "http://www.w3.org/Graphics/SVG/1.1/DTD/svg11.dtd">
<svg version="1.1" id="Calque_1" xmlns="http://www.w3.org/2000/svg" xmlns:xlink="http://www.w3.org/1999/xlink" x="0px" y="0px"
	 width="1024px" height="500px" viewBox="0 0 1024 500" enable-background="new 0 0 1024 500" xml:space="preserve">
<rect x="254.994" y="544" fill="#232121" width="1024" height="500"/>
<ellipse fill="#128BA6" cx="767.828" cy="748.784" rx="90.933" ry="91.545"/>
<path fill="#232121" d="M736.523,733.701c-11.607-3.873-20.776-9.168-27.495-15.887s-10.078-14.867-10.078-24.438
	c0-9.369,3.359-17.428,10.078-24.184c6.719-6.752,14.868-10.131,24.44-10.131c9.5,0,17.646,3.359,24.435,10.078
	c3.734,3.6,6.314,7.637,7.74,12.119l-8.248,3.259c-1.223-3.325-3.227-6.38-6.008-9.163c-4.957-4.889-10.93-7.333-17.919-7.333
	c-6.997,0-12.97,2.459-17.922,7.384c-4.956,4.92-7.434,10.914-7.434,17.971c0,6.994,2.478,12.967,7.434,17.919
	c4.613,4.551,10.997,8.727,19.14,12.524c13.037,4.211,23.997,10.762,32.892,19.653c9.434,9.367,14.151,20.706,14.151,34.009
	c0,13.375-4.718,24.779-14.151,34.215c-9.435,9.436-20.809,14.151-34.109,14.151c-13.309,0-24.679-4.748-34.114-14.254
	c-7.533-7.534-12.049-16.293-13.539-26.272l8.654-3.155c0.947,8.825,4.716,16.532,11.298,23.112
	c7.674,7.674,16.907,11.509,27.701,11.509c10.858,0,20.124-3.835,27.796-11.509c7.668-7.668,11.507-16.933,11.507-27.797
	c0-10.791-3.839-20.023-11.507-27.696C754.543,743.066,746.295,737.706,736.523,733.701z"/>
<path fill="#232121" d="M839.041,788.071c-1.696,2.173-3.53,4.278-5.499,6.312c-10.931,10.934-24.131,16.396-39.609,16.396
	c-15.41,0-28.578-5.462-39.507-16.396c-10.932-10.928-16.394-24.096-16.394-39.507c0-15.476,5.462-28.662,16.394-39.557
	c10.929-10.896,24.097-16.345,39.507-16.345c15.479,0,28.679,5.433,39.609,16.293c2.104,2.172,4.038,4.447,5.804,6.822v-14.154
	h9.165v77.693c0,15.001-5.332,27.832-15.984,38.486c-10.931,10.93-24.1,16.395-39.509,16.395c-15.477,0-28.683-5.465-39.609-16.395
	c-2.24-2.237-4.244-4.579-6.01-7.024l9.674-3.462c1.02,1.221,2.104,2.409,3.26,3.563c9.025,9.028,19.921,13.546,32.686,13.546
	c12.692,0,23.553-4.518,32.584-13.546C833.815,808.979,838.291,799.273,839.041,788.071z M839.243,745.305
	c-1.768-8.756-5.975-16.459-12.626-23.113c-9.029-9.027-19.922-13.545-32.685-13.545s-23.657,4.518-32.683,13.545
	c-9.031,9.029-13.547,19.926-13.547,32.685c0,12.763,4.516,23.659,13.547,32.685c9.025,9.031,19.92,13.543,32.683,13.543
	s23.655-4.512,32.685-13.543c6.584-6.583,10.796-14.217,12.626-22.91V745.305z"/>
<rect x="254.994" y="855.98" fill="none" width="1024" height="158.768"/>
<text transform="matrix(1 0 0 1 577.3411 902.8555)"><tspan x="0" y="0" fill="#128BA6" font-family="'CaviarDreams'" font-size="60">Sylvain Guillot</tspan><tspan x="32.126" y="29.708" fill="#128BA6" font-family="'CaviarDreams'" font-size="14">Web Designer - Developpeur Web - Infographiste</tspan></text>
<rect x="-10.5" y="-7.5" fill="#232121" width="1046" height="516"/>
<g>
	<path fill="#128BA6" d="M562.071,284.542c18.999-10.439,26.813-26.608,34.705-46.064c0.94-2.312,2.407-3.998,4.143-5.134V94.77
		H464.747c-2.471,11.806-16.717,17.83-25.229,26.064v127.912c0,0,13.434,35.745,61.384,19.717l31.915,20.927h24.759
		C558.333,287.513,559.773,285.804,562.071,284.542z"/>
	<path fill="#232121" d="M478.077,174.707c-12.851-4.283-22.998-10.146-30.436-17.585c-7.442-7.441-11.162-16.459-11.162-27.054
		c0-10.373,3.72-19.296,11.162-26.774c7.438-7.477,16.455-11.217,27.053-11.217c10.521,0,19.539,3.718,27.055,11.16
		c4.134,3.984,6.99,8.455,8.567,13.416l-9.13,3.606c-1.354-3.68-3.571-7.063-6.648-10.147c-5.492-5.409-12.102-8.117-19.844-8.117
		c-7.741,0-14.354,2.726-19.84,8.175c-5.488,5.45-8.229,12.083-8.229,19.898c0,7.742,2.74,14.355,8.229,19.838
		c5.11,5.037,12.174,9.661,21.194,13.867c14.43,4.661,26.565,11.913,36.41,21.758c10.446,10.371,15.668,22.923,15.668,37.65
		c0,14.808-5.222,27.434-15.668,37.882c-10.445,10.445-23.032,15.666-37.765,15.666c-14.729,0-27.319-5.259-37.765-15.781
		c-8.343-8.342-13.338-18.037-14.994-29.085l9.582-3.495c1.054,9.773,5.225,18.301,12.513,25.591
		c8.491,8.494,18.714,12.736,30.664,12.736c12.022,0,22.283-4.242,30.775-12.736c8.493-8.489,12.74-18.751,12.74-30.777
		c0-11.947-4.247-22.169-12.74-30.661C498.031,185.079,488.898,179.144,478.077,174.707z"/>
	<path fill="#232121" d="M591.578,234.904c-1.878,2.407-3.908,4.736-6.087,6.989c-12.101,12.103-26.717,18.151-43.852,18.151
		c-17.06,0-31.642-6.049-43.738-18.151c-12.103-12.099-18.149-26.678-18.149-43.738c0-17.135,6.047-31.735,18.149-43.795
		c12.097-12.064,26.679-18.095,43.738-18.095c17.135,0,31.751,6.012,43.852,18.037c2.328,2.407,4.472,4.923,6.424,7.553v-15.67
		h10.148V232.2c0,16.61-5.902,30.812-17.698,42.612c-12.102,12.102-26.682,18.148-43.741,18.148
		c-17.134,0-31.754-6.047-43.854-18.148c-2.478-2.48-4.695-5.072-6.648-7.778l10.707-3.834c1.131,1.354,2.331,2.668,3.609,3.946
		c9.994,9.995,22.057,14.995,36.187,14.995c14.052,0,26.077-5,36.075-14.995C585.79,258.054,590.749,247.304,591.578,234.904z
		 M591.803,187.558c-1.953-9.693-6.612-18.224-13.978-25.591c-9.995-9.993-22.059-14.994-36.186-14.994
		c-14.132,0-26.191,5-36.185,14.994c-9.998,9.996-14.995,22.06-14.995,36.188c0,14.128,4.997,26.19,14.995,36.187
		c9.993,9.998,22.053,14.994,36.185,14.994c14.127,0,26.19-4.996,36.186-14.994c7.29-7.291,11.95-15.743,13.978-25.365V187.558z"/>
</g>
<rect x="0" y="301.96" fill="none" width="1024" height="158.768"/>
<text transform="matrix(1 0 0 1 322.3464 348.835)"><tspan x="0" y="0" fill="#128BA6" font-family="'CaviarDreams'" font-size="60">Sylvain Guillot</tspan><tspan x="32.126" y="29.708" fill="#128BA6" font-family="'CaviarDreams'" font-size="14">Web Designer - Developpeur Web - Infographiste</tspan></text>
</svg>
