<?xml version="1.0" encoding="utf-8"?>
<!-- Generator: Adobe Illustrator 16.0.0, SVG Export Plug-In . SVG Version: 6.00 Build 0)  -->
<!DOCTYPE svg PUBLIC "-//W3C//DTD SVG 1.1//EN" "http://www.w3.org/Graphics/SVG/1.1/DTD/svg11.dtd">
<svg version="1.1" id="Calque_1" xmlns="http://www.w3.org/2000/svg" xmlns:xlink="http://www.w3.org/1999/xlink" x="0px" y="0px"
	 width="300px" height="300px" viewBox="0 0 300 300" enable-background="new 0 0 300 300" xml:space="preserve">
<circle fill="none" stroke="#0378A6" stroke-width="5" stroke-miterlimit="10" cx="148.588" cy="150.352" r="96.862"/>
<circle fill="none" stroke="#0378A6" stroke-miterlimit="10" cx="148.588" cy="149.852" r="90.362"/>
<rect x="330" y="19" fill-rule="evenodd" clip-rule="evenodd" fill="#0378A6" width="66" height="34"/>
<rect x="405" y="60" fill-rule="evenodd" clip-rule="evenodd" fill="#128BA6" width="66" height="34"/>
<rect x="483" y="109" fill-rule="evenodd" clip-rule="evenodd" fill="#F2BA52" width="66" height="34"/>
<rect x="559" y="158" fill-rule="evenodd" clip-rule="evenodd" fill="#D9863D" width="66" height="34"/>
<rect x="405" y="207" fill-rule="evenodd" clip-rule="evenodd" fill="#F22E2E" width="66" height="34"/>
<rect x="330" y="207" fill-rule="evenodd" clip-rule="evenodd" fill="#BF2A36" width="66" height="34"/>
<rect x="483" y="60" fill-rule="evenodd" clip-rule="evenodd" fill="#0DB3D9" width="66" height="34"/>
<rect x="405" y="109" fill-rule="evenodd" clip-rule="evenodd" fill="#F2B077" width="66" height="34"/>
<rect x="330" y="158" fill-rule="evenodd" clip-rule="evenodd" fill="#F2762E" width="66" height="34"/>
<rect x="559" y="207" fill-rule="evenodd" clip-rule="evenodd" fill="#F24130" width="66" height="34"/>
<rect x="559" y="60" fill-rule="evenodd" clip-rule="evenodd" fill="#66B8D9" width="66" height="34"/>
<rect x="559" y="109" fill-rule="evenodd" clip-rule="evenodd" fill="#F2E7C4" width="66" height="34"/>
<rect x="483" y="158" fill-rule="evenodd" clip-rule="evenodd" fill="#F2911B" width="66" height="34"/>
<rect x="405" y="19" fill-rule="evenodd" clip-rule="evenodd" fill="#F27C38" width="66" height="34"/>
<rect x="483" y="207" fill-rule="evenodd" clip-rule="evenodd" fill="#D93829" width="66" height="34"/>
<g>
	<line fill="none" stroke="#F27C38" stroke-width="4" stroke-miterlimit="10" x1="199" y1="163" x2="118" y2="163"/>
	<path fill="none" stroke="#F27C38" stroke-width="4" stroke-miterlimit="10" d="M89,138v-26c0-6.627,5.373-12,12-12h95
		c6.627,0,12,5.373,12,12"/>
	<rect x="140" y="163" fill-rule="evenodd" clip-rule="evenodd" fill="#F27C38" width="18" height="15"/>
	<line fill="none" stroke="#F27C38" stroke-width="2" stroke-miterlimit="10" x1="125" y1="179" x2="172" y2="179"/>
</g>
<rect x="480" y="20" fill-rule="evenodd" clip-rule="evenodd" fill="#232121" width="63" height="32"/>
<path fill="none" stroke="#232121" stroke-miterlimit="10" d="M129.404,192.314"/>
<rect x="89.563" y="108.5" fill="none" width="118.875" height="12"/>
<text transform="matrix(1 0 0 1 123.4136 114.7998)" font-family="'OpificioNeue'" font-size="9">Web Design</text>
<rect x="101" y="120" fill-rule="evenodd" clip-rule="evenodd" fill="#232121" width="12" height="20"/>
<rect x="118" y="120" fill-rule="evenodd" clip-rule="evenodd" fill="#232121" width="43" height="19"/>
<rect x="165" y="120" fill-rule="evenodd" clip-rule="evenodd" fill="#F27C38" width="34" height="19"/>
<rect x="118" y="143" fill-rule="evenodd" clip-rule="evenodd" fill="#0378A6" width="22" height="14"/>
<rect x="143" y="143" fill-rule="evenodd" clip-rule="evenodd" fill="#0378A6" width="18" height="14"/>
<rect x="165" y="143" fill-rule="evenodd" clip-rule="evenodd" fill="#232121" width="34" height="14"/>
<path fill-rule="evenodd" clip-rule="evenodd" fill="none" stroke="#F27C38" stroke-width="2" stroke-miterlimit="10" d="
	M118,179.283c0,6.471-4.785,11.717-10.554,11.717H82.202C76.433,191,72,185.754,72,179.283v-28.316
	C72,144.496,76.433,139,82.202,139h25.244c5.769,0,10.554,5.496,10.554,11.967V179.283z"/>
<rect x="72.563" y="143.852" fill="none" width="45.075" height="12"/>
<text transform="matrix(1 0 0 1 80.8848 147.3516)" font-family="'OpificioNeue'" font-size="5">Web Design</text>
<rect x="75" y="152" fill-rule="evenodd" clip-rule="evenodd" fill="#232121" width="6" height="32"/>
<rect x="83" y="152" fill-rule="evenodd" clip-rule="evenodd" fill="#232121" width="18" height="9"/>
<rect x="102" y="152" fill-rule="evenodd" clip-rule="evenodd" fill="#F27C38" width="13" height="9"/>
<rect x="83" y="165" fill-rule="evenodd" clip-rule="evenodd" fill="#0378A6" width="13" height="8"/>
<rect x="97" y="165" fill-rule="evenodd" clip-rule="evenodd" fill="#0378A6" width="11" height="8"/>
<rect x="83" y="176" fill-rule="evenodd" clip-rule="evenodd" fill="#232121" width="28" height="8"/>
<path fill="none" stroke="#232121" stroke-miterlimit="10" d="M221.404,204.314"/>
<path fill-rule="evenodd" clip-rule="evenodd" fill="none" stroke="#F27C38" stroke-width="2" stroke-miterlimit="10" d="
	M221,179.374c0,4.237-1.821,7.626-4.507,7.626h-11.746c-2.686,0-4.747-3.389-4.747-7.626v-18.539c0-4.237,2.062-7.835,4.747-7.835
	h11.746c2.686,0,4.507,3.598,4.507,7.835V179.374z"/>
<rect x="193.375" y="157" fill="none" width="34.451" height="9.172"/>
<text transform="matrix(1 0 0 1 204.9141 158.4004)" font-family="'OpificioNeue'" font-size="2">Web Design</text>
<rect x="204" y="161" fill-rule="evenodd" clip-rule="evenodd" fill="#232121" width="13" height="6"/>
<rect x="205" y="168" fill-rule="evenodd" clip-rule="evenodd" fill="#F27C38" width="11" height="7"/>
<rect x="205" y="176" fill-rule="evenodd" clip-rule="evenodd" fill="#0378A6" width="11" height="5"/>
<rect x="205" y="182" fill-rule="evenodd" clip-rule="evenodd" fill="#232121" width="11" height="4"/>
<line fill="none" stroke="#F27C38" stroke-width="4" stroke-miterlimit="10" x1="208" y1="112" x2="208" y2="152"/>
</svg>
