<?xml version="1.0" encoding="utf-8"?>
<!-- Generator: Adobe Illustrator 16.0.0, SVG Export Plug-In . SVG Version: 6.00 Build 0)  -->
<!DOCTYPE svg PUBLIC "-//W3C//DTD SVG 1.1//EN" "http://www.w3.org/Graphics/SVG/1.1/DTD/svg11.dtd">
<svg version="1.1" id="Calque_1" xmlns="http://www.w3.org/2000/svg" xmlns:xlink="http://www.w3.org/1999/xlink" x="0px" y="0px"
	 width="1024px" height="500px" viewBox="0 0 1024 500" enable-background="new 0 0 1024 500" xml:space="preserve">
<rect x="-6.5" y="-8.5" fill="#232121" width="1038.494" height="516"/>
<g>
	<ellipse fill="#128BA6" cx="511.414" cy="203.784" rx="90.933" ry="91.545"/>
	<path fill="#232121" d="M480.109,188.701c-11.607-3.873-20.776-9.168-27.495-15.887s-10.078-14.867-10.078-24.438
		c0-9.369,3.359-17.428,10.078-24.184c6.719-6.752,14.868-10.131,24.44-10.131c9.5,0,17.646,3.359,24.435,10.078
		c3.734,3.6,6.314,7.637,7.74,12.119l-8.248,3.259c-1.223-3.325-3.227-6.38-6.008-9.163c-4.957-4.889-10.93-7.333-17.919-7.333
		c-6.997,0-12.97,2.459-17.922,7.384c-4.956,4.92-7.434,10.914-7.434,17.971c0,6.994,2.478,12.967,7.434,17.919
		c4.613,4.551,10.997,8.727,19.14,12.524c13.037,4.211,23.997,10.762,32.892,19.653c9.434,9.367,14.151,20.706,14.151,34.009
		c0,13.375-4.718,24.779-14.151,34.215c-9.435,9.436-20.809,14.151-34.109,14.151c-13.309,0-24.679-4.748-34.114-14.254
		c-7.533-7.534-12.049-16.293-13.539-26.272l8.654-3.155c0.947,8.825,4.716,16.532,11.298,23.112
		c7.674,7.674,16.907,11.509,27.701,11.509c10.858,0,20.124-3.835,27.796-11.509c7.668-7.668,11.507-16.933,11.507-27.797
		c0-10.791-3.839-20.023-11.507-27.696C498.129,198.066,489.881,192.706,480.109,188.701z"/>
	<path fill="#232121" d="M582.627,243.071c-1.696,2.173-3.53,4.278-5.499,6.312c-10.931,10.934-24.131,16.396-39.609,16.396
		c-15.41,0-28.578-5.462-39.507-16.396c-10.932-10.928-16.394-24.096-16.394-39.507c0-15.476,5.462-28.662,16.394-39.557
		c10.929-10.896,24.097-16.345,39.507-16.345c15.479,0,28.679,5.433,39.609,16.293c2.104,2.172,4.038,4.447,5.804,6.822v-14.154
		h9.165v77.693c0,15.001-5.332,27.832-15.984,38.486c-10.931,10.93-24.1,16.395-39.509,16.395c-15.477,0-28.683-5.465-39.609-16.395
		c-2.24-2.237-4.244-4.579-6.01-7.024l9.674-3.462c1.02,1.221,2.104,2.409,3.26,3.563c9.025,9.028,19.921,13.546,32.686,13.546
		c12.692,0,23.553-4.518,32.584-13.546C577.401,263.979,581.877,254.273,582.627,243.071z M582.829,200.305
		c-1.768-8.756-5.975-16.459-12.626-23.113c-9.029-9.027-19.922-13.545-32.685-13.545s-23.657,4.518-32.683,13.545
		c-9.031,9.029-13.547,19.926-13.547,32.685c0,12.763,4.516,23.659,13.547,32.685c9.025,9.031,19.92,13.543,32.683,13.543
		s23.655-4.512,32.685-13.543c6.584-6.583,10.796-14.217,12.626-22.91V200.305z"/>
</g>
<g>
	<path fill="#128BA6" d="M372.887,327.715c-2.672-0.891-4.781-2.109-6.328-3.656s-2.32-3.422-2.32-5.625
		c0-2.156,0.773-4.012,2.32-5.566s3.422-2.332,5.625-2.332c2.188,0,4.063,0.773,5.625,2.32c0.859,0.828,1.453,1.758,1.781,2.789
		l-1.898,0.75c-0.281-0.766-0.742-1.469-1.383-2.109c-1.141-1.125-2.516-1.688-4.125-1.688s-2.984,0.566-4.125,1.699
		s-1.711,2.512-1.711,4.137c0,1.609,0.57,2.984,1.711,4.125c1.063,1.047,2.531,2.008,4.406,2.883c3,0.969,5.523,2.477,7.57,4.523
		c2.172,2.156,3.258,4.766,3.258,7.828c0,3.078-1.086,5.703-3.258,7.875s-4.789,3.258-7.852,3.258s-5.68-1.094-7.852-3.281
		c-1.734-1.734-2.773-3.75-3.117-6.047l1.992-0.727c0.219,2.031,1.086,3.805,2.602,5.32c1.766,1.766,3.891,2.648,6.375,2.648
		c2.5,0,4.633-0.883,6.398-2.648s2.648-3.898,2.648-6.398c0-2.484-0.883-4.609-2.648-6.375
		C377.035,329.871,375.137,328.637,372.887,327.715z"/>
	<path fill="#128BA6" d="M396.254,346.418l-5.203,10.852h-2.063l6.211-13.031l-8.977-18.773h2.391l7.641,16.5l7.641-16.5h2.367
		l-10.008,20.977V346.418z"/>
	<path fill="#128BA6" d="M413.645,310.98v37.5h-2.109v-37.5H413.645z"/>
	<path fill="#128BA6" d="M429.629,344.637l8.859-19.172h2.438l-11.297,23.648l-11.297-23.648h2.438L429.629,344.637z"/>
	<path fill="#128BA6" d="M469.754,348.48h-2.109v-4.688c-0.406,0.547-0.852,1.07-1.336,1.57c-2.516,2.516-5.555,3.773-9.117,3.773
		c-3.547,0-6.578-1.258-9.094-3.773s-3.773-5.547-3.773-9.094c0-3.563,1.258-6.602,3.773-9.117s5.547-3.773,9.094-3.773
		c3.563,0,6.602,1.258,9.117,3.773c0.484,0.5,0.93,1.023,1.336,1.57v-3.258h2.109V348.48z M467.645,338.355v-4.172
		c-0.391-2.063-1.367-3.875-2.93-5.438c-2.078-2.078-4.586-3.117-7.523-3.117s-5.445,1.039-7.523,3.117s-3.117,4.586-3.117,7.523
		s1.039,5.441,3.117,7.512s4.586,3.105,7.523,3.105s5.445-1.039,7.523-3.117C466.278,342.207,467.254,340.402,467.645,338.355z"/>
	<path fill="#128BA6" d="M479.797,317.918c0.414,0.406,0.621,0.898,0.621,1.477c0,0.594-0.207,1.094-0.621,1.5
		s-0.91,0.609-1.488,0.609s-1.074-0.203-1.488-0.609s-0.621-0.906-0.621-1.5c0-0.578,0.207-1.07,0.621-1.477s0.91-0.609,1.488-0.609
		S479.383,317.512,479.797,317.918z M479.364,325.465v23.016h-2.109v-23.016H479.364z"/>
	<path fill="#128BA6" d="M488.973,330.598v17.883h-2.109v-23.016h2.109v1.477c1.922-1.906,4.156-2.859,6.703-2.859
		c2.719,0,4.93,0.852,6.633,2.555s2.578,3.852,2.625,6.445v15.398h-2.109V333.27c0-1.953-0.707-3.621-2.121-5.004
		s-3.09-2.074-5.027-2.074s-3.609,0.68-5.016,2.039C489.895,328.996,489.332,329.785,488.973,330.598z"/>
	<path fill="#128BA6" d="M559.942,343.816c-3.563,3.406-7.82,5.109-12.773,5.109c-5.313,0-9.84-1.871-13.582-5.613
		s-5.613-8.27-5.613-13.582c0-5.297,1.871-9.82,5.613-13.57s8.27-5.625,13.582-5.625c4.953,0,9.258,1.664,12.914,4.992l-1.594,1.453
		c-3.219-2.859-6.992-4.289-11.32-4.289c-4.703,0-8.719,1.664-12.047,4.992s-4.992,7.344-4.992,12.047
		c0,4.719,1.664,8.742,4.992,12.07s7.344,4.992,12.047,4.992c4.031,0,7.586-1.242,10.664-3.727v-11.438h2.109V343.816z"/>
	<path fill="#128BA6" d="M576.02,348.809c-2.875,0-5.164-0.852-6.867-2.555s-2.578-3.852-2.625-6.445v-14.344h2.109v14.156
		c0,1.953,0.711,3.617,2.133,4.992c1.406,1.391,3.148,2.086,5.227,2.086c1.938,0,3.613-0.691,5.027-2.074s2.121-3.051,2.121-5.004
		v-14.156h2.109v14.344c-0.047,2.594-0.922,4.742-2.625,6.445S578.723,348.809,576.02,348.809z"/>
	<path fill="#128BA6" d="M595.297,317.918c0.414,0.406,0.621,0.898,0.621,1.477c0,0.594-0.207,1.094-0.621,1.5
		s-0.91,0.609-1.488,0.609s-1.074-0.203-1.488-0.609s-0.621-0.906-0.621-1.5c0-0.578,0.207-1.07,0.621-1.477s0.91-0.609,1.488-0.609
		S594.883,317.512,595.297,317.918z M594.864,325.465v23.016h-2.109v-23.016H594.864z"/>
	<path fill="#128BA6" d="M604.473,310.98v37.5h-2.109v-37.5H604.473z"/>
	<path fill="#128BA6" d="M613.614,310.98v37.5h-2.109v-37.5H613.614z"/>
	<path fill="#128BA6" d="M632.106,323.379c3.563,0,6.598,1.258,9.105,3.773s3.762,5.555,3.762,9.117
		c0,3.547-1.254,6.578-3.762,9.094s-5.543,3.773-9.105,3.773c-3.547,0-6.578-1.258-9.094-3.773s-3.773-5.547-3.773-9.094
		c0-3.563,1.258-6.602,3.773-9.117S628.559,323.379,632.106,323.379z M624.582,328.746c-2.078,2.078-3.117,4.586-3.117,7.523
		s1.039,5.441,3.117,7.512s4.586,3.105,7.523,3.105s5.445-1.035,7.523-3.105s3.117-4.574,3.117-7.512s-1.039-5.445-3.117-7.523
		s-4.586-3.117-7.523-3.117S626.66,326.668,624.582,328.746z"/>
	<path fill="#128BA6" d="M653.879,325.465v-9.797h2.109v9.797h4.688v2.109h-4.688v20.906h-2.109v-20.906h-4.688v-2.109H653.879z"/>
	<path fill="#128BA6" d="M381.6,374.382v-7.969h0.527v7.969c0.09,0.168,0.201,0.318,0.334,0.451c0.352,0.34,0.77,0.51,1.254,0.51
		s0.903-0.173,1.257-0.519s0.53-0.763,0.53-1.251v-7.16h0.527v7.207c-0.012,0.609-0.236,1.133-0.674,1.57
		c-0.453,0.453-1,0.68-1.641,0.68c-0.637,0-1.182-0.225-1.635-0.674c-0.082-0.078-0.154-0.158-0.217-0.24
		c-0.063,0.082-0.135,0.162-0.217,0.24c-0.453,0.449-0.998,0.674-1.635,0.674c-0.641,0-1.186-0.227-1.635-0.68
		c-0.441-0.438-0.668-0.961-0.68-1.57v-7.207h0.527v7.16c0,0.488,0.177,0.905,0.53,1.251s0.772,0.519,1.257,0.519
		s0.902-0.17,1.254-0.51C381.399,374.7,381.51,374.55,381.6,374.382z"/>
	<path fill="#128BA6" d="M388.309,374.71c0.496,0.453,1.086,0.68,1.77,0.68c0.734,0,1.361-0.26,1.881-0.779
		c0.066-0.066,0.129-0.135,0.188-0.205l0.557,0.199c-0.102,0.141-0.217,0.275-0.346,0.404c-0.629,0.629-1.389,0.943-2.279,0.943
		c-0.887,0-1.645-0.314-2.273-0.943s-0.943-1.389-0.943-2.279c0-0.887,0.314-1.645,0.943-2.273s1.387-0.943,2.273-0.943
		c0.762,0,1.428,0.229,1.998,0.686c0.094,0.078,0.188,0.164,0.281,0.258c0.035,0.035,0.068,0.07,0.1,0.105l-0.398,0.398
		L388.309,374.71z M391.672,370.603c-0.457-0.352-0.988-0.527-1.594-0.527c-0.73,0-1.355,0.259-1.875,0.776
		s-0.779,1.144-0.779,1.878c0,0.605,0.176,1.137,0.527,1.594L391.672,370.603z"/>
	<path fill="#128BA6" d="M394.11,366.413h0.527v4.43c0.098-0.133,0.209-0.262,0.334-0.387c0.629-0.629,1.387-0.943,2.273-0.943
		c0.891,0,1.649,0.314,2.276,0.943s0.94,1.389,0.94,2.279c0,0.887-0.313,1.645-0.94,2.273s-1.386,0.943-2.276,0.943
		c-0.887,0-1.645-0.314-2.273-0.943c-0.125-0.125-0.236-0.254-0.334-0.387v1.166h-0.527V366.413z M394.637,372.185v1.102
		c0.102,0.5,0.344,0.941,0.727,1.324c0.52,0.52,1.146,0.779,1.881,0.779s1.361-0.259,1.881-0.776s0.779-1.144,0.779-1.878
		s-0.26-1.361-0.779-1.881s-1.146-0.779-1.881-0.779s-1.361,0.26-1.881,0.779C394.981,371.237,394.739,371.681,394.637,372.185z"/>
	<path fill="#128BA6" d="M406.748,366.425h0.041c1.543,0,2.738,0.426,3.586,1.277c0.938,0.941,1.406,2.074,1.406,3.398
		c0,1.328-0.469,2.461-1.406,3.398c-0.848,0.852-2.043,1.277-3.586,1.277h-0.041v0.012h-0.527v-9.375h0.527V366.425z
		 M406.748,366.964v8.279h0.041c1.391,0,2.459-0.375,3.205-1.125c0.832-0.832,1.248-1.838,1.248-3.018
		c0-1.176-0.416-2.182-1.248-3.018c-0.746-0.746-1.814-1.119-3.205-1.119H406.748z"/>
	<path fill="#128BA6" d="M414.342,374.71c0.496,0.453,1.086,0.68,1.77,0.68c0.734,0,1.361-0.26,1.881-0.779
		c0.066-0.066,0.129-0.135,0.188-0.205l0.557,0.199c-0.102,0.141-0.217,0.275-0.346,0.404c-0.629,0.629-1.389,0.943-2.279,0.943
		c-0.887,0-1.645-0.314-2.273-0.943s-0.943-1.389-0.943-2.279c0-0.887,0.314-1.645,0.943-2.273s1.387-0.943,2.273-0.943
		c0.762,0,1.428,0.229,1.998,0.686c0.094,0.078,0.188,0.164,0.281,0.258c0.035,0.035,0.068,0.07,0.1,0.105l-0.398,0.398
		L414.342,374.71z M417.705,370.603c-0.457-0.352-0.988-0.527-1.594-0.527c-0.73,0-1.355,0.259-1.875,0.776
		s-0.779,1.144-0.779,1.878c0,0.605,0.176,1.137,0.527,1.594L417.705,370.603z"/>
	<path fill="#128BA6" d="M421.725,372.829c-0.449-0.242-0.76-0.449-0.932-0.621c-0.27-0.27-0.404-0.594-0.404-0.973
		c0-0.383,0.135-0.71,0.404-0.981s0.594-0.407,0.973-0.407c0.383,0,0.699,0.125,0.949,0.375c0.242,0.246,0.363,0.525,0.363,0.838
		v0.029l-0.457,0.182c-0.039-0.297-0.132-0.52-0.278-0.668s-0.339-0.223-0.577-0.223c-0.234,0-0.436,0.083-0.604,0.249
		s-0.252,0.368-0.252,0.606c0,0.234,0.084,0.436,0.252,0.604c0.098,0.098,0.305,0.246,0.621,0.445
		c0.5,0.273,0.855,0.516,1.066,0.727c0.332,0.336,0.498,0.736,0.498,1.201c0,0.477-0.166,0.882-0.498,1.216
		s-0.734,0.501-1.207,0.501s-0.875-0.167-1.207-0.501s-0.498-0.7-0.498-1.099l0.521-0.135c0,0.344,0.116,0.631,0.349,0.861
		s0.511,0.346,0.835,0.346s0.603-0.115,0.835-0.346s0.349-0.512,0.349-0.844c0-0.324-0.115-0.602-0.346-0.832
		C422.356,373.255,422.104,373.071,421.725,372.829z"/>
	<path fill="#128BA6" d="M425.595,368.147c0.104,0.102,0.155,0.225,0.155,0.369c0,0.148-0.052,0.273-0.155,0.375
		s-0.228,0.152-0.372,0.152s-0.269-0.051-0.372-0.152s-0.155-0.227-0.155-0.375c0-0.145,0.052-0.268,0.155-0.369
		s0.228-0.152,0.372-0.152S425.491,368.046,425.595,368.147z M425.487,370.034v5.754h-0.527v-5.754H425.487z"/>
	<path fill="#128BA6" d="M433.028,374.646c-0.098,0.125-0.203,0.246-0.316,0.363c-0.629,0.629-1.389,0.943-2.279,0.943
		c-0.887,0-1.645-0.314-2.273-0.943s-0.943-1.387-0.943-2.273c0-0.891,0.314-1.649,0.943-2.276s1.387-0.94,2.273-0.94
		c0.891,0,1.65,0.313,2.279,0.938c0.121,0.125,0.232,0.256,0.334,0.393v-0.814h0.527v4.471c0,0.863-0.307,1.602-0.92,2.215
		c-0.629,0.629-1.387,0.943-2.273,0.943c-0.891,0-1.65-0.314-2.279-0.943c-0.129-0.129-0.244-0.264-0.346-0.404l0.557-0.199
		c0.059,0.07,0.121,0.139,0.188,0.205c0.52,0.52,1.146,0.779,1.881,0.779c0.73,0,1.355-0.26,1.875-0.779
		C432.727,375.849,432.985,375.29,433.028,374.646z M433.039,372.185c-0.102-0.504-0.344-0.947-0.727-1.33
		c-0.52-0.52-1.146-0.779-1.881-0.779s-1.361,0.26-1.881,0.779s-0.779,1.146-0.779,1.881s0.26,1.361,0.779,1.881
		s1.146,0.779,1.881,0.779s1.361-0.26,1.881-0.779c0.379-0.379,0.621-0.818,0.727-1.318V372.185z"/>
	<path fill="#128BA6" d="M435.881,371.317v4.471h-0.527v-5.754h0.527v0.369c0.48-0.477,1.039-0.715,1.676-0.715
		c0.68,0,1.232,0.213,1.658,0.639s0.645,0.963,0.656,1.611v3.85h-0.527v-3.803c0-0.488-0.177-0.905-0.53-1.251
		s-0.772-0.519-1.257-0.519s-0.902,0.17-1.254,0.51C436.112,370.917,435.971,371.114,435.881,371.317z"/>
	<path fill="#128BA6" d="M442.725,374.71c0.496,0.453,1.086,0.68,1.77,0.68c0.734,0,1.361-0.26,1.881-0.779
		c0.066-0.066,0.129-0.135,0.188-0.205l0.557,0.199c-0.102,0.141-0.217,0.275-0.346,0.404c-0.629,0.629-1.389,0.943-2.279,0.943
		c-0.887,0-1.645-0.314-2.273-0.943s-0.943-1.389-0.943-2.279c0-0.887,0.314-1.645,0.943-2.273s1.387-0.943,2.273-0.943
		c0.762,0,1.428,0.229,1.998,0.686c0.094,0.078,0.188,0.164,0.281,0.258c0.035,0.035,0.068,0.07,0.1,0.105l-0.398,0.398
		L442.725,374.71z M446.088,370.603c-0.457-0.352-0.988-0.527-1.594-0.527c-0.73,0-1.355,0.259-1.875,0.776
		s-0.779,1.144-0.779,1.878c0,0.605,0.176,1.137,0.527,1.594L446.088,370.603z"/>
	<path fill="#128BA6" d="M448.526,370.034h0.527v1.049c0.109-0.156,0.236-0.307,0.381-0.451c0.465-0.465,0.941-0.709,1.43-0.732
		v0.574c-0.332,0.016-0.676,0.201-1.031,0.557c-0.5,0.496-0.76,1.092-0.779,1.787v2.971h-0.527V370.034z"/>
	<path fill="#128BA6" d="M456.037,372.056h3.457v0.527h-3.457V372.056z"/>
	<path fill="#128BA6" d="M465.781,366.425h0.041c1.543,0,2.738,0.426,3.586,1.277c0.938,0.941,1.406,2.074,1.406,3.398
		c0,1.328-0.469,2.461-1.406,3.398c-0.848,0.852-2.043,1.277-3.586,1.277h-0.041v0.012h-0.527v-9.375h0.527V366.425z
		 M465.781,366.964v8.279h0.041c1.391,0,2.459-0.375,3.205-1.125c0.832-0.832,1.248-1.838,1.248-3.018
		c0-1.176-0.416-2.182-1.248-3.018c-0.746-0.746-1.814-1.119-3.205-1.119H465.781z"/>
	<path fill="#128BA6" d="M473.375,374.71c0.496,0.453,1.086,0.68,1.77,0.68c0.734,0,1.361-0.26,1.881-0.779
		c0.066-0.066,0.129-0.135,0.188-0.205l0.557,0.199c-0.102,0.141-0.217,0.275-0.346,0.404c-0.629,0.629-1.389,0.943-2.279,0.943
		c-0.887,0-1.645-0.314-2.273-0.943s-0.943-1.389-0.943-2.279c0-0.887,0.314-1.645,0.943-2.273s1.387-0.943,2.273-0.943
		c0.762,0,1.428,0.229,1.998,0.686c0.094,0.078,0.188,0.164,0.281,0.258c0.035,0.035,0.068,0.07,0.1,0.105l-0.398,0.398
		L473.375,374.71z M476.739,370.603c-0.457-0.352-0.988-0.527-1.594-0.527c-0.73,0-1.355,0.259-1.875,0.776
		s-0.779,1.144-0.779,1.878c0,0.605,0.176,1.137,0.527,1.594L476.739,370.603z"/>
	<path fill="#128BA6" d="M481.297,374.827l2.215-4.793h0.609l-2.824,5.912l-2.824-5.912h0.609L481.297,374.827z"/>
	<path fill="#128BA6" d="M486.272,374.71c0.496,0.453,1.086,0.68,1.77,0.68c0.734,0,1.361-0.26,1.881-0.779
		c0.066-0.066,0.129-0.135,0.188-0.205l0.557,0.199c-0.102,0.141-0.217,0.275-0.346,0.404c-0.629,0.629-1.389,0.943-2.279,0.943
		c-0.887,0-1.645-0.314-2.273-0.943s-0.943-1.389-0.943-2.279c0-0.887,0.314-1.645,0.943-2.273s1.387-0.943,2.273-0.943
		c0.762,0,1.428,0.229,1.998,0.686c0.094,0.078,0.188,0.164,0.281,0.258c0.035,0.035,0.068,0.07,0.1,0.105l-0.398,0.398
		L486.272,374.71z M489.635,370.603c-0.457-0.352-0.988-0.527-1.594-0.527c-0.73,0-1.355,0.259-1.875,0.776
		s-0.779,1.144-0.779,1.878c0,0.605,0.176,1.137,0.527,1.594L489.635,370.603z"/>
	<path fill="#128BA6" d="M492.6,366.413v9.375h-0.527v-9.375H492.6z"/>
	<path fill="#128BA6" d="M497.223,369.513c0.891,0,1.649,0.314,2.276,0.943s0.94,1.389,0.94,2.279c0,0.887-0.313,1.645-0.94,2.273
		s-1.386,0.943-2.276,0.943c-0.887,0-1.645-0.314-2.273-0.943s-0.943-1.387-0.943-2.273c0-0.891,0.314-1.65,0.943-2.279
		S496.336,369.513,497.223,369.513z M495.342,370.854c-0.52,0.52-0.779,1.146-0.779,1.881s0.26,1.36,0.779,1.878
		s1.146,0.776,1.881,0.776s1.361-0.259,1.881-0.776s0.779-1.144,0.779-1.878s-0.26-1.361-0.779-1.881s-1.146-0.779-1.881-0.779
		S495.862,370.335,495.342,370.854z"/>
	<path fill="#128BA6" d="M501.846,370.034h0.527v0.809c0.098-0.133,0.209-0.262,0.334-0.387c0.629-0.625,1.387-0.938,2.273-0.938
		c0.891,0,1.649,0.313,2.276,0.94s0.94,1.386,0.94,2.276c0,0.887-0.313,1.645-0.94,2.273s-1.386,0.943-2.276,0.943
		c-0.887,0-1.645-0.314-2.273-0.943c-0.125-0.125-0.236-0.254-0.334-0.387v3.363h-0.527V370.034z M502.373,372.185v1.102
		c0.102,0.504,0.344,0.947,0.727,1.33c0.52,0.52,1.146,0.779,1.881,0.779s1.361-0.26,1.881-0.779s0.779-1.146,0.779-1.881
		s-0.26-1.361-0.779-1.881s-1.146-0.779-1.881-0.779s-1.361,0.26-1.881,0.779C502.717,371.237,502.475,371.681,502.373,372.185z"/>
	<path fill="#128BA6" d="M509.662,370.034h0.527v0.809c0.098-0.133,0.209-0.262,0.334-0.387c0.629-0.625,1.387-0.938,2.273-0.938
		c0.891,0,1.649,0.313,2.276,0.94s0.94,1.386,0.94,2.276c0,0.887-0.313,1.645-0.94,2.273s-1.386,0.943-2.276,0.943
		c-0.887,0-1.645-0.314-2.273-0.943c-0.125-0.125-0.236-0.254-0.334-0.387v3.363h-0.527V370.034z M510.19,372.185v1.102
		c0.102,0.504,0.344,0.947,0.727,1.33c0.52,0.52,1.146,0.779,1.881,0.779s1.361-0.26,1.881-0.779s0.779-1.146,0.779-1.881
		s-0.26-1.361-0.779-1.881s-1.146-0.779-1.881-0.779s-1.361,0.26-1.881,0.779C510.533,371.237,510.291,371.681,510.19,372.185z"/>
	<path fill="#128BA6" d="M518.574,374.71c0.496,0.453,1.086,0.68,1.77,0.68c0.734,0,1.361-0.26,1.881-0.779
		c0.066-0.066,0.129-0.135,0.188-0.205l0.557,0.199c-0.102,0.141-0.217,0.275-0.346,0.404c-0.629,0.629-1.389,0.943-2.279,0.943
		c-0.887,0-1.645-0.314-2.273-0.943s-0.943-1.389-0.943-2.279c0-0.887,0.314-1.645,0.943-2.273s1.387-0.943,2.273-0.943
		c0.762,0,1.428,0.229,1.998,0.686c0.094,0.078,0.188,0.164,0.281,0.258c0.035,0.035,0.068,0.07,0.1,0.105l-0.398,0.398
		L518.574,374.71z M521.938,370.603c-0.457-0.352-0.988-0.527-1.594-0.527c-0.73,0-1.355,0.259-1.875,0.776
		s-0.779,1.144-0.779,1.878c0,0.605,0.176,1.137,0.527,1.594L521.938,370.603z"/>
	<path fill="#128BA6" d="M526.748,375.87c-0.719,0-1.291-0.213-1.717-0.639s-0.645-0.963-0.656-1.611v-3.586h0.527v3.539
		c0,0.488,0.178,0.904,0.533,1.248c0.352,0.348,0.787,0.521,1.307,0.521c0.484,0,0.903-0.173,1.257-0.519s0.53-0.763,0.53-1.251
		v-3.539h0.527v3.586c-0.012,0.648-0.23,1.186-0.656,1.611S527.424,375.87,526.748,375.87z"/>
	<path fill="#128BA6" d="M530.815,370.034h0.527v1.049c0.109-0.156,0.236-0.307,0.381-0.451c0.465-0.465,0.941-0.709,1.43-0.732
		v0.574c-0.332,0.016-0.676,0.201-1.031,0.557c-0.5,0.496-0.76,1.092-0.779,1.787v2.971h-0.527V370.034z"/>
	<path fill="#128BA6" d="M542.082,374.382v-7.969h0.527v7.969c0.09,0.168,0.201,0.318,0.334,0.451c0.352,0.34,0.77,0.51,1.254,0.51
		s0.903-0.173,1.257-0.519s0.53-0.763,0.53-1.251v-7.16h0.527v7.207c-0.012,0.609-0.236,1.133-0.674,1.57
		c-0.453,0.453-1,0.68-1.641,0.68c-0.637,0-1.182-0.225-1.635-0.674c-0.082-0.078-0.154-0.158-0.217-0.24
		c-0.063,0.082-0.135,0.162-0.217,0.24c-0.453,0.449-0.998,0.674-1.635,0.674c-0.641,0-1.186-0.227-1.635-0.68
		c-0.441-0.438-0.668-0.961-0.68-1.57v-7.207h0.527v7.16c0,0.488,0.177,0.905,0.53,1.251s0.772,0.519,1.257,0.519
		s0.902-0.17,1.254-0.51C541.881,374.7,541.992,374.55,542.082,374.382z"/>
	<path fill="#128BA6" d="M548.791,374.71c0.496,0.453,1.086,0.68,1.77,0.68c0.734,0,1.361-0.26,1.881-0.779
		c0.066-0.066,0.129-0.135,0.188-0.205l0.557,0.199c-0.102,0.141-0.217,0.275-0.346,0.404c-0.629,0.629-1.389,0.943-2.279,0.943
		c-0.887,0-1.645-0.314-2.273-0.943s-0.943-1.389-0.943-2.279c0-0.887,0.314-1.645,0.943-2.273s1.387-0.943,2.273-0.943
		c0.762,0,1.428,0.229,1.998,0.686c0.094,0.078,0.188,0.164,0.281,0.258c0.035,0.035,0.068,0.07,0.1,0.105l-0.398,0.398
		L548.791,374.71z M552.155,370.603c-0.457-0.352-0.988-0.527-1.594-0.527c-0.73,0-1.355,0.259-1.875,0.776
		s-0.779,1.144-0.779,1.878c0,0.605,0.176,1.137,0.527,1.594L552.155,370.603z"/>
	<path fill="#128BA6" d="M554.592,366.413h0.527v4.43c0.098-0.133,0.209-0.262,0.334-0.387c0.629-0.629,1.387-0.943,2.273-0.943
		c0.891,0,1.649,0.314,2.276,0.943s0.94,1.389,0.94,2.279c0,0.887-0.313,1.645-0.94,2.273s-1.386,0.943-2.276,0.943
		c-0.887,0-1.645-0.314-2.273-0.943c-0.125-0.125-0.236-0.254-0.334-0.387v1.166h-0.527V366.413z M555.119,372.185v1.102
		c0.102,0.5,0.344,0.941,0.727,1.324c0.52,0.52,1.146,0.779,1.881,0.779s1.361-0.259,1.881-0.776s0.779-1.144,0.779-1.878
		s-0.26-1.361-0.779-1.881s-1.146-0.779-1.881-0.779s-1.361,0.26-1.881,0.779C555.463,371.237,555.221,371.681,555.119,372.185z"/>
	<path fill="#128BA6" d="M566.557,372.056h3.457v0.527h-3.457V372.056z"/>
	<path fill="#128BA6" d="M576.418,366.413v9.375h-0.527v-9.375H576.418z"/>
	<path fill="#128BA6" d="M578.821,371.317v4.471h-0.527v-5.754h0.527v0.369c0.48-0.477,1.039-0.715,1.676-0.715
		c0.68,0,1.232,0.213,1.658,0.639s0.645,0.963,0.656,1.611v3.85h-0.527v-3.803c0-0.488-0.177-0.905-0.53-1.251
		s-0.772-0.519-1.257-0.519s-0.902,0.17-1.254,0.51C579.051,370.917,578.91,371.114,578.821,371.317z"/>
	<path fill="#128BA6" d="M585.33,370.562v5.227h-0.527v-5.227h-0.586v-0.527h0.586v-1.559c0.023-0.434,0.189-0.807,0.498-1.119
		c0.32-0.297,0.689-0.445,1.107-0.445c0.219,0,0.449,0.041,0.691,0.123l-0.164,0.469c-0.164-0.07-0.322-0.105-0.475-0.105
		c-0.277,0-0.539,0.111-0.785,0.334c-0.219,0.215-0.334,0.475-0.346,0.779v1.523h1.172v0.527H585.33z"/>
	<path fill="#128BA6" d="M590.381,369.513c0.891,0,1.649,0.314,2.276,0.943s0.94,1.389,0.94,2.279c0,0.887-0.313,1.645-0.94,2.273
		s-1.386,0.943-2.276,0.943c-0.887,0-1.645-0.314-2.273-0.943s-0.943-1.387-0.943-2.273c0-0.891,0.314-1.65,0.943-2.279
		S589.494,369.513,590.381,369.513z M588.5,370.854c-0.52,0.52-0.779,1.146-0.779,1.881s0.26,1.36,0.779,1.878
		s1.146,0.776,1.881,0.776s1.361-0.259,1.881-0.776s0.779-1.144,0.779-1.878s-0.26-1.361-0.779-1.881s-1.146-0.779-1.881-0.779
		S589.02,370.335,588.5,370.854z"/>
	<path fill="#128BA6" d="M600.67,374.646c-0.098,0.125-0.203,0.246-0.316,0.363c-0.629,0.629-1.389,0.943-2.279,0.943
		c-0.887,0-1.645-0.314-2.273-0.943s-0.943-1.387-0.943-2.273c0-0.891,0.314-1.649,0.943-2.276s1.387-0.94,2.273-0.94
		c0.891,0,1.65,0.313,2.279,0.938c0.121,0.125,0.232,0.256,0.334,0.393v-0.814h0.527v4.471c0,0.863-0.307,1.602-0.92,2.215
		c-0.629,0.629-1.387,0.943-2.273,0.943c-0.891,0-1.65-0.314-2.279-0.943c-0.129-0.129-0.244-0.264-0.346-0.404l0.557-0.199
		c0.059,0.07,0.121,0.139,0.188,0.205c0.52,0.52,1.146,0.779,1.881,0.779c0.73,0,1.355-0.26,1.875-0.779
		C600.369,375.849,600.627,375.29,600.67,374.646z M600.682,372.185c-0.102-0.504-0.344-0.947-0.727-1.33
		c-0.52-0.52-1.146-0.779-1.881-0.779s-1.361,0.26-1.881,0.779s-0.779,1.146-0.779,1.881s0.26,1.361,0.779,1.881
		s1.146,0.779,1.881,0.779s1.361-0.26,1.881-0.779c0.379-0.379,0.621-0.818,0.727-1.318V372.185z"/>
	<path fill="#128BA6" d="M602.996,370.034h0.527v1.049c0.109-0.156,0.236-0.307,0.381-0.451c0.465-0.465,0.941-0.709,1.43-0.732
		v0.574c-0.332,0.016-0.676,0.201-1.031,0.557c-0.5,0.496-0.76,1.092-0.779,1.787v2.971h-0.527V370.034z"/>
	<path fill="#128BA6" d="M612.717,375.788h-0.527v-1.172c-0.102,0.137-0.213,0.268-0.334,0.393
		c-0.629,0.629-1.389,0.943-2.279,0.943c-0.887,0-1.645-0.314-2.273-0.943s-0.943-1.387-0.943-2.273c0-0.891,0.314-1.65,0.943-2.279
		s1.387-0.943,2.273-0.943c0.891,0,1.65,0.314,2.279,0.943c0.121,0.125,0.232,0.256,0.334,0.393v-0.814h0.527V375.788z
		 M612.19,373.257v-1.043c-0.098-0.516-0.342-0.969-0.732-1.359c-0.52-0.52-1.146-0.779-1.881-0.779s-1.361,0.26-1.881,0.779
		s-0.779,1.146-0.779,1.881s0.26,1.36,0.779,1.878s1.146,0.776,1.881,0.776s1.361-0.26,1.881-0.779
		C611.848,374.22,612.092,373.769,612.19,373.257z"/>
	<path fill="#128BA6" d="M614.592,370.034h0.527v0.809c0.098-0.133,0.209-0.262,0.334-0.387c0.629-0.625,1.387-0.938,2.273-0.938
		c0.891,0,1.649,0.313,2.276,0.94s0.94,1.386,0.94,2.276c0,0.887-0.313,1.645-0.94,2.273s-1.386,0.943-2.276,0.943
		c-0.887,0-1.645-0.314-2.273-0.943c-0.125-0.125-0.236-0.254-0.334-0.387v3.363h-0.527V370.034z M615.119,372.185v1.102
		c0.102,0.504,0.344,0.947,0.727,1.33c0.52,0.52,1.146,0.779,1.881,0.779s1.361-0.26,1.881-0.779s0.779-1.146,0.779-1.881
		s-0.26-1.361-0.779-1.881s-1.146-0.779-1.881-0.779s-1.361,0.26-1.881,0.779C615.463,371.237,615.221,371.681,615.119,372.185z"/>
	<path fill="#128BA6" d="M622.408,366.413h0.527v3.92c0.445-0.43,0.98-0.645,1.605-0.645c0.68,0,1.232,0.213,1.658,0.639
		s0.645,0.963,0.656,1.611v3.85h-0.527v-3.803c0-0.488-0.177-0.905-0.53-1.251s-0.772-0.519-1.257-0.519s-0.902,0.17-1.254,0.51
		c-0.156,0.156-0.273,0.318-0.352,0.486v4.576h-0.527V366.413z"/>
	<path fill="#128BA6" d="M629.366,368.147c0.104,0.102,0.155,0.225,0.155,0.369c0,0.148-0.052,0.273-0.155,0.375
		s-0.228,0.152-0.372,0.152s-0.269-0.051-0.372-0.152s-0.155-0.227-0.155-0.375c0-0.145,0.052-0.268,0.155-0.369
		s0.228-0.152,0.372-0.152S629.263,368.046,629.366,368.147z M629.258,370.034v5.754h-0.527v-5.754H629.258z"/>
	<path fill="#128BA6" d="M632.715,372.829c-0.449-0.242-0.76-0.449-0.932-0.621c-0.27-0.27-0.404-0.594-0.404-0.973
		c0-0.383,0.135-0.71,0.404-0.981s0.594-0.407,0.973-0.407c0.383,0,0.699,0.125,0.949,0.375c0.242,0.246,0.363,0.525,0.363,0.838
		v0.029l-0.457,0.182c-0.039-0.297-0.132-0.52-0.278-0.668s-0.339-0.223-0.577-0.223c-0.234,0-0.436,0.083-0.604,0.249
		s-0.252,0.368-0.252,0.606c0,0.234,0.084,0.436,0.252,0.604c0.098,0.098,0.305,0.246,0.621,0.445
		c0.5,0.273,0.855,0.516,1.066,0.727c0.332,0.336,0.498,0.736,0.498,1.201c0,0.477-0.166,0.882-0.498,1.216
		s-0.734,0.501-1.207,0.501s-0.875-0.167-1.207-0.501s-0.498-0.7-0.498-1.099l0.521-0.135c0,0.344,0.116,0.631,0.349,0.861
		s0.511,0.346,0.835,0.346s0.603-0.115,0.835-0.346s0.349-0.512,0.349-0.844c0-0.324-0.115-0.602-0.346-0.832
		C633.346,373.255,633.094,373.071,632.715,372.829z"/>
	<path fill="#128BA6" d="M636.74,370.034v-2.449h0.527v2.449h1.172v0.527h-1.172v5.227h-0.527v-5.227h-1.172v-0.527H636.74z"/>
	<path fill="#128BA6" d="M640.942,374.71c0.496,0.453,1.086,0.68,1.77,0.68c0.734,0,1.361-0.26,1.881-0.779
		c0.066-0.066,0.129-0.135,0.188-0.205l0.557,0.199c-0.102,0.141-0.217,0.275-0.346,0.404c-0.629,0.629-1.389,0.943-2.279,0.943
		c-0.887,0-1.645-0.314-2.273-0.943s-0.943-1.389-0.943-2.279c0-0.887,0.314-1.645,0.943-2.273s1.387-0.943,2.273-0.943
		c0.762,0,1.428,0.229,1.998,0.686c0.094,0.078,0.188,0.164,0.281,0.258c0.035,0.035,0.068,0.07,0.1,0.105l-0.398,0.398
		L640.942,374.71z M644.305,370.603c-0.457-0.352-0.988-0.527-1.594-0.527c-0.73,0-1.355,0.259-1.875,0.776
		s-0.779,1.144-0.779,1.878c0,0.605,0.176,1.137,0.527,1.594L644.305,370.603z"/>
</g>
<rect x="2.546" y="-577.5" fill="#232121" width="1046" height="516"/>
<g>
	<path fill="#128BA6" d="M575.116-285.458c18.998-10.439,26.813-26.608,34.705-46.064c0.939-2.312,2.406-3.998,4.143-5.134V-475.23
		H477.793c-2.471,11.806-16.717,17.83-25.229,26.064v127.912c0,0,13.434,35.745,61.384,19.717l31.915,20.927h24.758
		C571.378-282.487,572.818-284.196,575.116-285.458z"/>
	<path fill="#232121" d="M491.123-395.293c-12.851-4.283-22.998-10.146-30.436-17.585c-7.442-7.441-11.162-16.459-11.162-27.054
		c0-10.373,3.72-19.296,11.162-26.774c7.438-7.477,16.455-11.217,27.053-11.217c10.521,0,19.539,3.718,27.055,11.16
		c4.133,3.984,6.989,8.455,8.567,13.416l-9.13,3.606c-1.354-3.68-3.572-7.063-6.649-10.147c-5.492-5.409-12.102-8.117-19.844-8.117
		c-7.741,0-14.354,2.726-19.84,8.175c-5.488,5.45-8.229,12.083-8.229,19.898c0,7.742,2.74,14.355,8.229,19.838
		c5.11,5.037,12.174,9.661,21.194,13.867c14.43,4.661,26.566,11.913,36.411,21.758c10.445,10.371,15.668,22.923,15.668,37.65
		c0,14.808-5.223,27.434-15.668,37.882c-10.446,10.445-23.033,15.666-37.765,15.666c-14.729,0-27.319-5.259-37.765-15.781
		c-8.343-8.342-13.338-18.037-14.994-29.085l9.582-3.495c1.054,9.773,5.225,18.301,12.513,25.591
		c8.491,8.494,18.714,12.736,30.664,12.736c12.022,0,22.283-4.242,30.776-12.736c8.493-8.489,12.739-18.751,12.739-30.777
		c0-11.947-4.246-22.169-12.739-30.661C511.077-384.921,501.943-390.856,491.123-395.293z"/>
	<path fill="#232121" d="M604.624-335.096c-1.879,2.407-3.908,4.736-6.088,6.989c-12.1,12.103-26.717,18.151-43.852,18.151
		c-17.059,0-31.641-6.049-43.738-18.151c-12.103-12.099-18.149-26.678-18.149-43.738c0-17.135,6.047-31.735,18.149-43.795
		c12.097-12.064,26.679-18.095,43.738-18.095c17.135,0,31.752,6.012,43.852,18.037c2.328,2.407,4.473,4.923,6.424,7.553v-15.67
		h10.148v86.015c0,16.61-5.902,30.812-17.697,42.612c-12.102,12.102-26.682,18.148-43.742,18.148
		c-17.133,0-31.754-6.047-43.854-18.148c-2.478-2.48-4.695-5.072-6.648-7.778l10.707-3.834c1.131,1.354,2.332,2.668,3.609,3.946
		c9.995,9.995,22.058,14.995,36.187,14.995c14.053,0,26.078-5,36.076-14.995C598.835-311.946,603.794-322.696,604.624-335.096z
		 M604.849-382.442c-1.953-9.693-6.613-18.224-13.979-25.591c-9.994-9.993-22.059-14.994-36.186-14.994
		c-14.131,0-26.191,5-36.185,14.994c-9.998,9.996-14.995,22.06-14.995,36.188c0,14.128,4.997,26.19,14.995,36.187
		c9.993,9.998,22.054,14.994,36.185,14.994c14.127,0,26.191-4.996,36.186-14.994c7.291-7.291,11.951-15.743,13.979-25.365V-382.442z
		"/>
</g>
<rect x="13.046" y="-268.04" fill="none" width="1024" height="158.768"/>
<text transform="matrix(1 0 0 1 335.3918 -221.165)"><tspan x="0" y="0" fill="#128BA6" font-family="'CaviarDreams'" font-size="60">Sylvain Guillot</tspan><tspan x="32.126" y="29.708" fill="#128BA6" font-family="'CaviarDreams'" font-size="14">Web Designer - Developpeur Web - Infographiste</tspan></text>
</svg>
