<?xml version="1.0" encoding="utf-8"?>
<!-- Generator: Adobe Illustrator 16.0.0, SVG Export Plug-In . SVG Version: 6.00 Build 0)  -->
<!DOCTYPE svg PUBLIC "-//W3C//DTD SVG 1.1//EN" "http://www.w3.org/Graphics/SVG/1.1/DTD/svg11.dtd">
<svg version="1.1" id="Calque_1" xmlns="http://www.w3.org/2000/svg" xmlns:xlink="http://www.w3.org/1999/xlink" x="0px" y="0px"
	 width="1024px" height="500px" viewBox="0 0 1024 500" enable-background="new 0 0 1024 500" xml:space="preserve">
<rect x="-6.5" y="-8.5" fill="#232121" width="1038.494" height="516"/>
<g>
	<ellipse fill="#128BA6" cx="511.414" cy="203.784" rx="90.933" ry="91.545"/>
	<path fill="#232121" d="M480.109,188.701c-11.607-3.873-20.776-9.168-27.495-15.887s-10.078-14.867-10.078-24.438
		c0-9.369,3.359-17.428,10.078-24.184c6.719-6.752,14.868-10.131,24.44-10.131c9.5,0,17.646,3.359,24.435,10.078
		c3.734,3.6,6.314,7.637,7.74,12.119l-8.248,3.259c-1.223-3.325-3.227-6.38-6.008-9.163c-4.957-4.889-10.93-7.333-17.919-7.333
		c-6.997,0-12.97,2.459-17.922,7.384c-4.956,4.92-7.434,10.914-7.434,17.971c0,6.994,2.478,12.967,7.434,17.919
		c4.613,4.551,10.997,8.727,19.14,12.524c13.037,4.211,23.997,10.762,32.892,19.653c9.434,9.367,14.151,20.706,14.151,34.009
		c0,13.375-4.718,24.779-14.151,34.215c-9.435,9.436-20.809,14.151-34.109,14.151c-13.309,0-24.679-4.748-34.114-14.254
		c-7.533-7.534-12.049-16.293-13.539-26.272l8.654-3.155c0.947,8.825,4.716,16.532,11.298,23.112
		c7.674,7.674,16.907,11.509,27.701,11.509c10.858,0,20.124-3.835,27.796-11.509c7.668-7.668,11.507-16.933,11.507-27.797
		c0-10.791-3.839-20.023-11.507-27.696C498.129,198.066,489.881,192.706,480.109,188.701z"/>
	<path fill="#232121" d="M582.627,243.071c-1.696,2.173-3.53,4.278-5.499,6.312c-10.931,10.934-24.131,16.396-39.609,16.396
		c-15.41,0-28.578-5.462-39.507-16.396c-10.932-10.928-16.394-24.096-16.394-39.507c0-15.476,5.462-28.662,16.394-39.557
		c10.929-10.896,24.097-16.345,39.507-16.345c15.479,0,28.679,5.433,39.609,16.293c2.104,2.172,4.038,4.447,5.804,6.822v-14.154
		h9.165v77.693c0,15.001-5.332,27.832-15.984,38.486c-10.931,10.93-24.1,16.395-39.509,16.395c-15.477,0-28.683-5.465-39.609-16.395
		c-2.24-2.237-4.244-4.579-6.01-7.024l9.674-3.462c1.02,1.221,2.104,2.409,3.26,3.563c9.025,9.028,19.921,13.546,32.686,13.546
		c12.692,0,23.553-4.518,32.584-13.546C577.401,263.979,581.877,254.273,582.627,243.071z M582.829,200.305
		c-1.768-8.756-5.975-16.459-12.626-23.113c-9.029-9.027-19.922-13.545-32.685-13.545s-23.657,4.518-32.683,13.545
		c-9.031,9.029-13.547,19.926-13.547,32.685c0,12.763,4.516,23.659,13.547,32.685c9.025,9.031,19.92,13.543,32.683,13.543
		s23.655-4.512,32.685-13.543c6.584-6.583,10.796-14.217,12.626-22.91V200.305z"/>
</g>
<g>
	<path fill="#128BA6" d="M338.255,331.898c-3.34-1.113-5.977-2.637-7.91-4.57s-2.9-4.277-2.9-7.031c0-2.695,0.967-5.015,2.9-6.958
		s4.277-2.915,7.031-2.915c2.734,0,5.078,0.967,7.031,2.9c1.074,1.035,1.816,2.197,2.227,3.486l-2.373,0.938
		c-0.352-0.957-0.928-1.836-1.729-2.637c-1.426-1.406-3.145-2.109-5.156-2.109c-2.012,0-3.731,0.708-5.156,2.124
		c-1.426,1.416-2.139,3.14-2.139,5.171c0,2.012,0.713,3.73,2.139,5.156c1.328,1.309,3.164,2.51,5.508,3.604
		c3.75,1.211,6.904,3.096,9.463,5.654c2.714,2.695,4.072,5.957,4.072,9.785c0,3.848-1.358,7.129-4.072,9.844
		c-2.715,2.715-5.987,4.072-9.814,4.072c-3.828,0-7.1-1.367-9.814-4.102c-2.168-2.168-3.467-4.688-3.896-7.559l2.49-0.908
		c0.273,2.539,1.357,4.756,3.252,6.65c2.207,2.207,4.863,3.311,7.969,3.311c3.125,0,5.791-1.104,7.998-3.311
		c2.207-2.207,3.311-4.873,3.311-7.998c0-3.105-1.104-5.762-3.311-7.969C343.441,334.594,341.068,333.051,338.255,331.898z"/>
	<path fill="#128BA6" d="M367.464,355.277l-6.504,13.564h-2.578l7.764-16.289l-11.221-23.467h2.988l9.551,20.625l9.551-20.625h2.959
		l-12.51,26.221V355.277z"/>
	<path fill="#128BA6" d="M389.202,310.98v46.875h-2.637V310.98H389.202z"/>
	<path fill="#128BA6" d="M409.183,353.051l11.074-23.965h3.047l-14.121,29.561l-14.121-29.561h3.047L409.183,353.051z"/>
	<path fill="#128BA6" d="M459.339,357.855h-2.637v-5.859c-0.508,0.684-1.065,1.338-1.67,1.963
		c-3.145,3.145-6.943,4.717-11.396,4.717c-4.434,0-8.223-1.572-11.367-4.717c-3.145-3.145-4.717-6.934-4.717-11.367
		c0-4.453,1.572-8.252,4.717-11.396c3.145-3.145,6.933-4.717,11.367-4.717c4.453,0,8.251,1.572,11.396,4.717
		c0.605,0.625,1.162,1.279,1.67,1.963v-4.072h2.637V357.855z M456.702,345.199v-5.215c-0.488-2.578-1.709-4.844-3.662-6.797
		c-2.598-2.598-5.732-3.896-9.404-3.896c-3.672,0-6.807,1.299-9.404,3.896c-2.598,2.598-3.896,5.732-3.896,9.404
		s1.299,6.802,3.896,9.39c2.597,2.588,5.732,3.882,9.404,3.882c3.672,0,6.807-1.299,9.404-3.896
		C454.993,350.014,456.214,347.758,456.702,345.199z"/>
	<path fill="#128BA6" d="M471.893,319.652c0.517,0.508,0.776,1.123,0.776,1.846c0,0.742-0.259,1.367-0.776,1.875
		c-0.518,0.508-1.138,0.762-1.86,0.762c-0.723,0-1.343-0.254-1.86-0.762c-0.518-0.508-0.776-1.133-0.776-1.875
		c0-0.723,0.259-1.338,0.776-1.846c0.517-0.508,1.138-0.762,1.86-0.762C470.755,318.891,471.375,319.145,471.893,319.652z
		 M471.351,329.086v28.77h-2.637v-28.77H471.351z"/>
	<path fill="#128BA6" d="M483.363,335.502v22.354h-2.637v-28.77h2.637v1.846c2.402-2.383,5.195-3.574,8.379-3.574
		c3.398,0,6.162,1.064,8.291,3.193c2.128,2.129,3.223,4.814,3.281,8.057v19.248h-2.637v-19.014c0-2.441-0.884-4.526-2.651-6.255
		c-1.768-1.729-3.863-2.593-6.284-2.593c-2.422,0-4.512,0.85-6.27,2.549C484.515,333.5,483.812,334.486,483.363,335.502z"/>
	<path fill="#128BA6" d="M572.073,352.025c-4.453,4.258-9.775,6.387-15.967,6.387c-6.641,0-12.3-2.339-16.978-7.017
		s-7.017-10.337-7.017-16.978c0-6.621,2.339-12.275,7.017-16.963s10.337-7.031,16.978-7.031c6.191,0,11.572,2.08,16.143,6.24
		l-1.992,1.816c-4.023-3.574-8.74-5.361-14.15-5.361c-5.879,0-10.898,2.08-15.059,6.24s-6.24,9.18-6.24,15.059
		c0,5.898,2.08,10.928,6.24,15.088s9.18,6.24,15.059,6.24c5.039,0,9.482-1.553,13.33-4.658v-14.297h2.637V352.025z"/>
	<path fill="#128BA6" d="M592.171,358.266c-3.594,0-6.455-1.064-8.584-3.193s-3.223-4.814-3.281-8.057v-17.93h2.637v17.695
		c0,2.441,0.889,4.521,2.666,6.24c1.758,1.738,3.936,2.607,6.533,2.607c2.422,0,4.517-0.864,6.284-2.593s2.651-3.813,2.651-6.255
		v-17.695h2.637v17.93c-0.059,3.242-1.152,5.928-3.281,8.057S595.55,358.266,592.171,358.266z"/>
	<path fill="#128BA6" d="M616.268,319.652c0.518,0.508,0.776,1.123,0.776,1.846c0,0.742-0.259,1.367-0.776,1.875
		s-1.138,0.762-1.86,0.762s-1.343-0.254-1.86-0.762s-0.776-1.133-0.776-1.875c0-0.723,0.259-1.338,0.776-1.846
		s1.138-0.762,1.86-0.762S615.75,319.145,616.268,319.652z M615.726,329.086v28.77h-2.637v-28.77H615.726z"/>
	<path fill="#128BA6" d="M627.738,310.98v46.875h-2.637V310.98H627.738z"/>
	<path fill="#128BA6" d="M639.163,310.98v46.875h-2.637V310.98H639.163z"/>
	<path fill="#128BA6" d="M662.279,326.479c4.453,0,8.247,1.572,11.382,4.717s4.702,6.943,4.702,11.396
		c0,4.434-1.567,8.223-4.702,11.367s-6.929,4.717-11.382,4.717c-4.434,0-8.223-1.572-11.367-4.717s-4.717-6.934-4.717-11.367
		c0-4.453,1.572-8.252,4.717-11.396S657.845,326.479,662.279,326.479z M652.874,333.188c-2.598,2.598-3.896,5.732-3.896,9.404
		s1.299,6.802,3.896,9.39s5.732,3.882,9.404,3.882s6.807-1.294,9.404-3.882s3.896-5.718,3.896-9.39s-1.299-6.807-3.896-9.404
		s-5.732-3.896-9.404-3.896S655.472,330.59,652.874,333.188z"/>
	<path fill="#128BA6" d="M689.495,329.086V316.84h2.637v12.246h5.859v2.637h-5.859v26.133h-2.637v-26.133h-5.859v-2.637H689.495z"/>
	<path fill="#128BA6" d="M359.964,385.923v-9.297h0.615v9.297c0.105,0.196,0.235,0.371,0.39,0.526
		c0.41,0.396,0.898,0.595,1.463,0.595s1.054-0.202,1.466-0.604c0.413-0.404,0.619-0.891,0.619-1.46v-8.354h0.615v8.408
		c-0.014,0.711-0.276,1.321-0.786,1.832c-0.529,0.528-1.167,0.793-1.914,0.793c-0.743,0-1.378-0.262-1.907-0.786
		c-0.096-0.091-0.18-0.185-0.253-0.28c-0.073,0.096-0.157,0.189-0.253,0.28c-0.529,0.524-1.165,0.786-1.907,0.786
		c-0.748,0-1.383-0.265-1.907-0.793c-0.515-0.511-0.779-1.121-0.793-1.832v-8.408h0.615v8.354c0,0.569,0.206,1.056,0.619,1.46
		c0.413,0.402,0.901,0.604,1.466,0.604s1.053-0.198,1.463-0.595C359.729,386.294,359.859,386.119,359.964,385.923z"/>
	<path fill="#128BA6" d="M367.791,386.306c0.579,0.528,1.267,0.793,2.064,0.793c0.857,0,1.588-0.303,2.194-0.909
		c0.078-0.077,0.15-0.157,0.219-0.239l0.649,0.232c-0.119,0.164-0.253,0.321-0.403,0.472c-0.734,0.733-1.62,1.101-2.659,1.101
		c-1.035,0-1.918-0.367-2.652-1.101s-1.101-1.62-1.101-2.659c0-1.034,0.367-1.919,1.101-2.652s1.618-1.101,2.652-1.101
		c0.889,0,1.666,0.267,2.331,0.8c0.109,0.091,0.219,0.191,0.328,0.301c0.041,0.041,0.08,0.082,0.116,0.123l-0.465,0.465
		L367.791,386.306z M371.715,381.514c-0.533-0.41-1.153-0.615-1.859-0.615c-0.852,0-1.582,0.302-2.188,0.906
		c-0.606,0.604-0.909,1.334-0.909,2.19c0,0.706,0.205,1.326,0.615,1.859L371.715,381.514z"/>
	<path fill="#128BA6" d="M374.559,376.626h0.615v5.168c0.114-0.155,0.244-0.306,0.39-0.451c0.734-0.733,1.618-1.101,2.652-1.101
		c1.039,0,1.924,0.367,2.656,1.101s1.097,1.62,1.097,2.659c0,1.034-0.366,1.919-1.097,2.652s-1.617,1.101-2.656,1.101
		c-1.035,0-1.918-0.367-2.652-1.101c-0.146-0.146-0.276-0.296-0.39-0.451v1.36h-0.615V376.626z M375.174,383.359v1.285
		c0.119,0.583,0.401,1.099,0.848,1.545c0.606,0.606,1.337,0.909,2.194,0.909s1.588-0.302,2.194-0.905
		c0.606-0.604,0.909-1.335,0.909-2.191s-0.303-1.588-0.909-2.194s-1.337-0.909-2.194-0.909s-1.588,0.303-2.194,0.909
		C375.575,382.254,375.293,382.771,375.174,383.359z"/>
	<path fill="#128BA6" d="M389.304,376.64h0.048c1.8,0,3.195,0.497,4.184,1.49c1.094,1.099,1.641,2.42,1.641,3.965
		c0,1.55-0.547,2.871-1.641,3.965c-0.989,0.993-2.383,1.49-4.184,1.49h-0.048v0.014h-0.615v-10.938h0.615V376.64z M389.304,377.269
		v9.659h0.048c1.623,0,2.869-0.438,3.739-1.313c0.971-0.971,1.456-2.145,1.456-3.521c0-1.372-0.485-2.545-1.456-3.521
		c-0.871-0.87-2.117-1.306-3.739-1.306H389.304z"/>
	<path fill="#128BA6" d="M398.163,386.306c0.579,0.528,1.267,0.793,2.064,0.793c0.857,0,1.588-0.303,2.194-0.909
		c0.078-0.077,0.15-0.157,0.219-0.239l0.649,0.232c-0.119,0.164-0.253,0.321-0.403,0.472c-0.734,0.733-1.62,1.101-2.659,1.101
		c-1.035,0-1.918-0.367-2.652-1.101s-1.101-1.62-1.101-2.659c0-1.034,0.367-1.919,1.101-2.652s1.618-1.101,2.652-1.101
		c0.889,0,1.666,0.267,2.331,0.8c0.109,0.091,0.219,0.191,0.328,0.301c0.041,0.041,0.08,0.082,0.116,0.123l-0.465,0.465
		L398.163,386.306z M402.087,381.514c-0.533-0.41-1.153-0.615-1.859-0.615c-0.852,0-1.582,0.302-2.188,0.906
		c-0.606,0.604-0.909,1.334-0.909,2.19c0,0.706,0.205,1.326,0.615,1.859L402.087,381.514z"/>
	<path fill="#128BA6" d="M406.777,384.111c-0.524-0.282-0.886-0.524-1.087-0.725c-0.314-0.314-0.472-0.692-0.472-1.135
		c0-0.446,0.157-0.828,0.472-1.145c0.314-0.317,0.693-0.476,1.135-0.476c0.447,0,0.816,0.146,1.107,0.438
		c0.283,0.287,0.424,0.613,0.424,0.978v0.034l-0.533,0.212c-0.045-0.347-0.154-0.606-0.325-0.779s-0.396-0.26-0.673-0.26
		c-0.273,0-0.508,0.097-0.704,0.291c-0.196,0.193-0.294,0.429-0.294,0.707c0,0.273,0.098,0.508,0.294,0.704
		c0.114,0.114,0.355,0.287,0.725,0.52c0.583,0.319,0.998,0.602,1.244,0.848c0.387,0.392,0.581,0.859,0.581,1.401
		c0,0.556-0.194,1.029-0.581,1.418c-0.387,0.391-0.857,0.585-1.408,0.585s-1.021-0.194-1.408-0.585
		c-0.387-0.389-0.581-0.816-0.581-1.281l0.608-0.157c0,0.401,0.136,0.736,0.407,1.005s0.596,0.403,0.974,0.403
		s0.703-0.135,0.974-0.403s0.407-0.597,0.407-0.984c0-0.378-0.134-0.702-0.403-0.971
		C407.512,384.608,407.219,384.394,406.777,384.111z"/>
	<path fill="#128BA6" d="M411.292,378.649c0.121,0.118,0.181,0.262,0.181,0.431c0,0.173-0.061,0.319-0.181,0.438
		s-0.266,0.178-0.434,0.178s-0.313-0.06-0.434-0.178s-0.181-0.265-0.181-0.438c0-0.169,0.061-0.313,0.181-0.431
		s0.266-0.178,0.434-0.178S411.171,378.531,411.292,378.649z M411.165,380.851v6.713h-0.615v-6.713H411.165z"/>
	<path fill="#128BA6" d="M419.963,386.23c-0.114,0.146-0.237,0.287-0.369,0.424c-0.734,0.733-1.62,1.101-2.659,1.101
		c-1.035,0-1.918-0.367-2.652-1.101s-1.101-1.618-1.101-2.652c0-1.039,0.367-1.924,1.101-2.656c0.734-0.73,1.618-1.097,2.652-1.097
		c1.039,0,1.925,0.364,2.659,1.094c0.141,0.146,0.271,0.299,0.39,0.458v-0.95h0.615v5.216c0,1.007-0.358,1.868-1.073,2.584
		c-0.734,0.733-1.618,1.101-2.652,1.101c-1.039,0-1.925-0.367-2.659-1.101c-0.15-0.15-0.285-0.308-0.403-0.472l0.649-0.232
		c0.068,0.082,0.141,0.162,0.219,0.239c0.606,0.606,1.337,0.909,2.194,0.909c0.852,0,1.582-0.303,2.188-0.909
		C419.612,387.634,419.913,386.982,419.963,386.23z M419.977,383.359c-0.119-0.588-0.401-1.105-0.848-1.552
		c-0.606-0.606-1.337-0.909-2.194-0.909s-1.588,0.303-2.194,0.909s-0.909,1.338-0.909,2.194s0.303,1.588,0.909,2.194
		s1.337,0.909,2.194,0.909s1.588-0.303,2.194-0.909c0.442-0.442,0.725-0.955,0.848-1.538V383.359z"/>
	<path fill="#128BA6" d="M423.292,382.348v5.216h-0.615v-6.713h0.615v0.431c0.561-0.556,1.212-0.834,1.955-0.834
		c0.793,0,1.438,0.248,1.935,0.745s0.752,1.123,0.766,1.88v4.491h-0.615v-4.437c0-0.569-0.206-1.057-0.619-1.459
		c-0.413-0.404-0.901-0.605-1.466-0.605s-1.053,0.198-1.463,0.595C423.561,381.881,423.397,382.11,423.292,382.348z"/>
	<path fill="#128BA6" d="M431.277,386.306c0.579,0.528,1.267,0.793,2.064,0.793c0.857,0,1.588-0.303,2.194-0.909
		c0.078-0.077,0.15-0.157,0.219-0.239l0.649,0.232c-0.119,0.164-0.253,0.321-0.403,0.472c-0.734,0.733-1.62,1.101-2.659,1.101
		c-1.035,0-1.918-0.367-2.652-1.101s-1.101-1.62-1.101-2.659c0-1.034,0.367-1.919,1.101-2.652s1.618-1.101,2.652-1.101
		c0.889,0,1.666,0.267,2.331,0.8c0.109,0.091,0.219,0.191,0.328,0.301c0.041,0.041,0.08,0.082,0.116,0.123l-0.465,0.465
		L431.277,386.306z M435.2,381.514c-0.533-0.41-1.153-0.615-1.859-0.615c-0.852,0-1.582,0.302-2.188,0.906
		c-0.606,0.604-0.909,1.334-0.909,2.19c0,0.706,0.205,1.326,0.615,1.859L435.2,381.514z"/>
	<path fill="#128BA6" d="M438.044,380.851h0.615v1.224c0.127-0.183,0.276-0.357,0.444-0.526c0.542-0.542,1.098-0.827,1.668-0.854
		v0.67c-0.387,0.019-0.789,0.234-1.203,0.649c-0.583,0.579-0.886,1.273-0.909,2.085v3.466h-0.615V380.851z"/>
	<path fill="#128BA6" d="M446.808,383.209h4.033v0.615h-4.033V383.209z"/>
	<path fill="#128BA6" d="M458.176,376.64h0.048c1.8,0,3.195,0.497,4.184,1.49c1.094,1.099,1.641,2.42,1.641,3.965
		c0,1.55-0.547,2.871-1.641,3.965c-0.989,0.993-2.383,1.49-4.184,1.49h-0.048v0.014h-0.615v-10.938h0.615V376.64z M458.176,377.269
		v9.659h0.048c1.623,0,2.869-0.438,3.739-1.313c0.971-0.971,1.456-2.145,1.456-3.521c0-1.372-0.485-2.545-1.456-3.521
		c-0.871-0.87-2.117-1.306-3.739-1.306H458.176z"/>
	<path fill="#128BA6" d="M467.035,386.306c0.579,0.528,1.267,0.793,2.064,0.793c0.857,0,1.588-0.303,2.194-0.909
		c0.078-0.077,0.15-0.157,0.219-0.239l0.649,0.232c-0.119,0.164-0.253,0.321-0.403,0.472c-0.734,0.733-1.62,1.101-2.659,1.101
		c-1.035,0-1.918-0.367-2.652-1.101s-1.101-1.62-1.101-2.659c0-1.034,0.367-1.919,1.101-2.652s1.618-1.101,2.652-1.101
		c0.889,0,1.666,0.267,2.331,0.8c0.109,0.091,0.219,0.191,0.328,0.301c0.041,0.041,0.08,0.082,0.116,0.123l-0.465,0.465
		L467.035,386.306z M470.959,381.514c-0.533-0.41-1.153-0.615-1.859-0.615c-0.852,0-1.582,0.302-2.188,0.906
		c-0.606,0.604-0.909,1.334-0.909,2.19c0,0.706,0.205,1.326,0.615,1.859L470.959,381.514z"/>
	<path fill="#128BA6" d="M476.278,386.442l2.584-5.592h0.711l-3.295,6.897l-3.295-6.897h0.711L476.278,386.442z"/>
	<path fill="#128BA6" d="M482.081,386.306c0.579,0.528,1.267,0.793,2.064,0.793c0.857,0,1.588-0.303,2.194-0.909
		c0.078-0.077,0.15-0.157,0.219-0.239l0.649,0.232c-0.119,0.164-0.253,0.321-0.403,0.472c-0.734,0.733-1.62,1.101-2.659,1.101
		c-1.035,0-1.918-0.367-2.652-1.101s-1.101-1.62-1.101-2.659c0-1.034,0.367-1.919,1.101-2.652s1.618-1.101,2.652-1.101
		c0.889,0,1.666,0.267,2.331,0.8c0.109,0.091,0.219,0.191,0.328,0.301c0.041,0.041,0.08,0.082,0.116,0.123l-0.465,0.465
		L482.081,386.306z M486.005,381.514c-0.533-0.41-1.153-0.615-1.859-0.615c-0.852,0-1.582,0.302-2.188,0.906
		c-0.606,0.604-0.909,1.334-0.909,2.19c0,0.706,0.205,1.326,0.615,1.859L486.005,381.514z"/>
	<path fill="#128BA6" d="M489.464,376.626v10.938h-0.615v-10.938H489.464z"/>
	<path fill="#128BA6" d="M494.858,380.242c1.039,0,1.924,0.367,2.656,1.101s1.097,1.62,1.097,2.659c0,1.034-0.366,1.919-1.097,2.652
		s-1.617,1.101-2.656,1.101c-1.035,0-1.918-0.367-2.652-1.101s-1.101-1.618-1.101-2.652c0-1.039,0.367-1.926,1.101-2.659
		S493.823,380.242,494.858,380.242z M492.663,381.808c-0.606,0.606-0.909,1.338-0.909,2.194s0.303,1.587,0.909,2.191
		c0.606,0.604,1.337,0.905,2.194,0.905s1.588-0.302,2.194-0.905c0.606-0.604,0.909-1.335,0.909-2.191s-0.303-1.588-0.909-2.194
		s-1.337-0.909-2.194-0.909S493.269,381.201,492.663,381.808z"/>
	<path fill="#128BA6" d="M500.251,380.851h0.615v0.943c0.114-0.155,0.244-0.306,0.39-0.451c0.734-0.729,1.618-1.094,2.652-1.094
		c1.039,0,1.924,0.366,2.656,1.097c0.731,0.732,1.097,1.617,1.097,2.656c0,1.034-0.366,1.919-1.097,2.652s-1.617,1.101-2.656,1.101
		c-1.035,0-1.918-0.367-2.652-1.101c-0.146-0.146-0.276-0.296-0.39-0.451v3.924h-0.615V380.851z M500.866,383.359v1.285
		c0.119,0.588,0.401,1.105,0.848,1.552c0.606,0.606,1.337,0.909,2.194,0.909s1.588-0.303,2.194-0.909s0.909-1.338,0.909-2.194
		s-0.303-1.588-0.909-2.194s-1.337-0.909-2.194-0.909s-1.588,0.303-2.194,0.909C501.267,382.254,500.985,382.771,500.866,383.359z"
		/>
	<path fill="#128BA6" d="M509.37,380.851h0.615v0.943c0.114-0.155,0.244-0.306,0.39-0.451c0.734-0.729,1.618-1.094,2.652-1.094
		c1.039,0,1.925,0.366,2.656,1.097c0.731,0.732,1.097,1.617,1.097,2.656c0,1.034-0.365,1.919-1.097,2.652s-1.617,1.101-2.656,1.101
		c-1.035,0-1.918-0.367-2.652-1.101c-0.146-0.146-0.276-0.296-0.39-0.451v3.924h-0.615V380.851z M509.986,383.359v1.285
		c0.119,0.588,0.401,1.105,0.848,1.552c0.606,0.606,1.337,0.909,2.194,0.909c0.857,0,1.589-0.303,2.194-0.909
		c0.606-0.606,0.909-1.338,0.909-2.194s-0.303-1.588-0.909-2.194c-0.605-0.606-1.337-0.909-2.194-0.909
		c-0.857,0-1.588,0.303-2.194,0.909C510.386,382.254,510.104,382.771,509.986,383.359z"/>
	<path fill="#128BA6" d="M519.768,386.306c0.579,0.528,1.268,0.793,2.064,0.793c0.857,0,1.589-0.303,2.194-0.909
		c0.078-0.077,0.15-0.157,0.219-0.239l0.649,0.232c-0.118,0.164-0.253,0.321-0.403,0.472c-0.733,0.733-1.62,1.101-2.659,1.101
		c-1.034,0-1.918-0.367-2.652-1.101c-0.733-0.733-1.101-1.62-1.101-2.659c0-1.034,0.367-1.919,1.101-2.652
		c0.734-0.733,1.618-1.101,2.652-1.101c0.889,0,1.666,0.267,2.331,0.8c0.109,0.091,0.219,0.191,0.328,0.301
		c0.041,0.041,0.08,0.082,0.116,0.123l-0.465,0.465L519.768,386.306z M523.692,381.514c-0.533-0.41-1.152-0.615-1.859-0.615
		c-0.852,0-1.581,0.302-2.188,0.906c-0.605,0.604-0.909,1.334-0.909,2.19c0,0.706,0.205,1.326,0.615,1.859L523.692,381.514z"/>
	<path fill="#128BA6" d="M529.304,387.659c-0.838,0-1.506-0.248-2.003-0.745c-0.496-0.497-0.752-1.123-0.766-1.88v-4.184h0.615
		v4.129c0,0.569,0.208,1.055,0.622,1.456c0.41,0.405,0.919,0.608,1.524,0.608c0.565,0,1.054-0.202,1.467-0.604
		c0.412-0.404,0.618-0.891,0.618-1.46v-4.129h0.615v4.184c-0.014,0.757-0.269,1.383-0.766,1.88
		C530.736,387.411,530.093,387.659,529.304,387.659z"/>
	<path fill="#128BA6" d="M534.048,380.851h0.615v1.224c0.128-0.183,0.276-0.357,0.444-0.526c0.543-0.542,1.099-0.827,1.668-0.854
		v0.67c-0.387,0.019-0.788,0.234-1.203,0.649c-0.583,0.579-0.886,1.273-0.909,2.085v3.466h-0.615V380.851z"/>
	<path fill="#128BA6" d="M547.194,385.923v-9.297h0.615v9.297c0.104,0.196,0.234,0.371,0.39,0.526
		c0.41,0.396,0.897,0.595,1.463,0.595s1.054-0.202,1.466-0.604c0.413-0.404,0.619-0.891,0.619-1.46v-8.354h0.615v8.408
		c-0.014,0.711-0.275,1.321-0.786,1.832c-0.528,0.528-1.167,0.793-1.914,0.793c-0.743,0-1.379-0.262-1.907-0.786
		c-0.096-0.091-0.18-0.185-0.253-0.28c-0.073,0.096-0.157,0.189-0.253,0.28c-0.528,0.524-1.164,0.786-1.907,0.786
		c-0.747,0-1.383-0.265-1.907-0.793c-0.515-0.511-0.779-1.121-0.793-1.832v-8.408h0.615v8.354c0,0.569,0.206,1.056,0.619,1.46
		c0.412,0.402,0.9,0.604,1.466,0.604s1.053-0.198,1.463-0.595C546.959,386.294,547.089,386.119,547.194,385.923z"/>
	<path fill="#128BA6" d="M555.021,386.306c0.579,0.528,1.267,0.793,2.064,0.793c0.856,0,1.588-0.303,2.194-0.909
		c0.077-0.077,0.15-0.157,0.219-0.239l0.649,0.232c-0.118,0.164-0.253,0.321-0.403,0.472c-0.733,0.733-1.62,1.101-2.659,1.101
		c-1.034,0-1.919-0.367-2.652-1.101s-1.101-1.62-1.101-2.659c0-1.034,0.367-1.919,1.101-2.652s1.618-1.101,2.652-1.101
		c0.889,0,1.666,0.267,2.331,0.8c0.109,0.091,0.219,0.191,0.328,0.301c0.041,0.041,0.08,0.082,0.116,0.123l-0.465,0.465
		L555.021,386.306z M558.945,381.514c-0.533-0.41-1.153-0.615-1.859-0.615c-0.853,0-1.581,0.302-2.188,0.906
		c-0.606,0.604-0.909,1.334-0.909,2.19c0,0.706,0.205,1.326,0.615,1.859L558.945,381.514z"/>
	<path fill="#128BA6" d="M561.788,376.626h0.615v5.168c0.114-0.155,0.244-0.306,0.39-0.451c0.733-0.733,1.618-1.101,2.652-1.101
		c1.039,0,1.924,0.367,2.656,1.101c0.73,0.733,1.097,1.62,1.097,2.659c0,1.034-0.366,1.919-1.097,2.652
		c-0.732,0.733-1.617,1.101-2.656,1.101c-1.034,0-1.919-0.367-2.652-1.101c-0.146-0.146-0.275-0.296-0.39-0.451v1.36h-0.615V376.626
		z M562.404,383.359v1.285c0.118,0.583,0.401,1.099,0.848,1.545c0.606,0.606,1.338,0.909,2.194,0.909s1.588-0.302,2.194-0.905
		c0.606-0.604,0.909-1.335,0.909-2.191s-0.303-1.588-0.909-2.194s-1.338-0.909-2.194-0.909s-1.588,0.303-2.194,0.909
		C562.805,382.254,562.522,382.771,562.404,383.359z"/>
	<path fill="#128BA6" d="M575.747,383.209h4.033v0.615h-4.033V383.209z"/>
	<path fill="#128BA6" d="M587.252,376.626v10.938h-0.615v-10.938H587.252z"/>
	<path fill="#128BA6" d="M590.055,382.348v5.216h-0.615v-6.713h0.615v0.431c0.561-0.556,1.212-0.834,1.955-0.834
		c0.793,0,1.438,0.248,1.935,0.745s0.752,1.123,0.766,1.88v4.491h-0.615v-4.437c0-0.569-0.206-1.057-0.618-1.459
		c-0.413-0.404-0.901-0.605-1.467-0.605s-1.053,0.198-1.463,0.595C590.323,381.881,590.159,382.11,590.055,382.348z"/>
	<path fill="#128BA6" d="M597.65,381.466v6.098h-0.615v-6.098h-0.684v-0.615h0.684v-1.818c0.027-0.506,0.221-0.941,0.581-1.306
		c0.374-0.347,0.805-0.52,1.292-0.52c0.255,0,0.524,0.048,0.807,0.144l-0.191,0.547c-0.191-0.082-0.376-0.123-0.554-0.123
		c-0.323,0-0.629,0.13-0.916,0.39c-0.255,0.251-0.39,0.554-0.403,0.909v1.777h1.367v0.615H597.65z"/>
	<path fill="#128BA6" d="M603.542,380.242c1.039,0,1.925,0.367,2.655,1.101c0.732,0.733,1.098,1.62,1.098,2.659
		c0,1.034-0.365,1.919-1.098,2.652c-0.73,0.733-1.616,1.101-2.655,1.101c-1.034,0-1.919-0.367-2.652-1.101s-1.101-1.618-1.101-2.652
		c0-1.039,0.367-1.926,1.101-2.659S602.508,380.242,603.542,380.242z M601.348,381.808c-0.606,0.606-0.909,1.338-0.909,2.194
		s0.303,1.587,0.909,2.191c0.606,0.604,1.338,0.905,2.194,0.905s1.588-0.302,2.194-0.905c0.606-0.604,0.909-1.335,0.909-2.191
		s-0.303-1.588-0.909-2.194s-1.338-0.909-2.194-0.909S601.954,381.201,601.348,381.808z"/>
	<path fill="#128BA6" d="M615.546,386.23c-0.114,0.146-0.237,0.287-0.369,0.424c-0.733,0.733-1.62,1.101-2.659,1.101
		c-1.034,0-1.919-0.367-2.652-1.101s-1.101-1.618-1.101-2.652c0-1.039,0.367-1.924,1.101-2.656c0.733-0.73,1.618-1.097,2.652-1.097
		c1.039,0,1.926,0.364,2.659,1.094c0.142,0.146,0.271,0.299,0.39,0.458v-0.95h0.615v5.216c0,1.007-0.357,1.868-1.073,2.584
		c-0.733,0.733-1.618,1.101-2.652,1.101c-1.039,0-1.926-0.367-2.659-1.101c-0.15-0.15-0.285-0.308-0.403-0.472l0.649-0.232
		c0.068,0.082,0.142,0.162,0.219,0.239c0.606,0.606,1.338,0.909,2.194,0.909c0.853,0,1.581-0.303,2.188-0.909
		C615.196,387.634,615.496,386.982,615.546,386.23z M615.56,383.359c-0.118-0.588-0.401-1.105-0.848-1.552
		c-0.606-0.606-1.338-0.909-2.194-0.909s-1.588,0.303-2.194,0.909s-0.909,1.338-0.909,2.194s0.303,1.588,0.909,2.194
		s1.338,0.909,2.194,0.909s1.588-0.303,2.194-0.909c0.442-0.442,0.725-0.955,0.848-1.538V383.359z"/>
	<path fill="#128BA6" d="M618.26,380.851h0.615v1.224c0.128-0.183,0.275-0.357,0.444-0.526c0.542-0.542,1.099-0.827,1.668-0.854
		v0.67c-0.388,0.019-0.788,0.234-1.203,0.649c-0.583,0.579-0.887,1.273-0.909,2.085v3.466h-0.615V380.851z"/>
	<path fill="#128BA6" d="M629.601,387.563h-0.615v-1.367c-0.118,0.159-0.248,0.313-0.39,0.458c-0.733,0.733-1.62,1.101-2.659,1.101
		c-1.034,0-1.919-0.367-2.652-1.101s-1.101-1.618-1.101-2.652c0-1.039,0.367-1.926,1.101-2.659s1.618-1.101,2.652-1.101
		c1.039,0,1.926,0.367,2.659,1.101c0.142,0.146,0.271,0.299,0.39,0.458v-0.95h0.615V387.563z M628.986,384.61v-1.217
		c-0.114-0.602-0.398-1.13-0.854-1.586c-0.606-0.606-1.338-0.909-2.194-0.909s-1.588,0.303-2.194,0.909s-0.909,1.338-0.909,2.194
		s0.303,1.587,0.909,2.191c0.606,0.604,1.338,0.905,2.194,0.905s1.588-0.303,2.194-0.909
		C628.587,385.733,628.871,385.207,628.986,384.61z"/>
	<path fill="#128BA6" d="M631.788,380.851h0.615v0.943c0.114-0.155,0.244-0.306,0.39-0.451c0.733-0.729,1.618-1.094,2.652-1.094
		c1.039,0,1.924,0.366,2.656,1.097c0.73,0.732,1.097,1.617,1.097,2.656c0,1.034-0.366,1.919-1.097,2.652
		c-0.732,0.733-1.617,1.101-2.656,1.101c-1.034,0-1.919-0.367-2.652-1.101c-0.146-0.146-0.275-0.296-0.39-0.451v3.924h-0.615
		V380.851z M632.404,383.359v1.285c0.118,0.588,0.401,1.105,0.848,1.552c0.606,0.606,1.338,0.909,2.194,0.909
		s1.588-0.303,2.194-0.909s0.909-1.338,0.909-2.194s-0.303-1.588-0.909-2.194s-1.338-0.909-2.194-0.909s-1.588,0.303-2.194,0.909
		C632.805,382.254,632.522,382.771,632.404,383.359z"/>
	<path fill="#128BA6" d="M640.907,376.626h0.615v4.573c0.52-0.501,1.144-0.752,1.873-0.752c0.793,0,1.438,0.248,1.935,0.745
		s0.752,1.123,0.766,1.88v4.491h-0.615v-4.437c0-0.569-0.206-1.057-0.619-1.459c-0.412-0.404-0.9-0.605-1.466-0.605
		s-1.053,0.198-1.463,0.595c-0.183,0.183-0.319,0.371-0.41,0.567v5.339h-0.615V376.626z"/>
	<path fill="#128BA6" d="M649.026,378.649c0.12,0.118,0.181,0.262,0.181,0.431c0,0.173-0.061,0.319-0.181,0.438
		c-0.121,0.118-0.266,0.178-0.435,0.178s-0.313-0.06-0.435-0.178c-0.12-0.118-0.181-0.265-0.181-0.438
		c0-0.169,0.061-0.313,0.181-0.431c0.121-0.118,0.266-0.178,0.435-0.178S648.905,378.531,649.026,378.649z M648.899,380.851v6.713
		h-0.615v-6.713H648.899z"/>
	<path fill="#128BA6" d="M652.932,384.111c-0.524-0.282-0.887-0.524-1.087-0.725c-0.314-0.314-0.472-0.692-0.472-1.135
		c0-0.446,0.157-0.828,0.472-1.145c0.314-0.317,0.692-0.476,1.135-0.476c0.446,0,0.815,0.146,1.107,0.438
		c0.282,0.287,0.424,0.613,0.424,0.978v0.034l-0.533,0.212c-0.046-0.347-0.153-0.606-0.325-0.779c-0.17-0.173-0.395-0.26-0.673-0.26
		c-0.273,0-0.508,0.097-0.704,0.291c-0.196,0.193-0.294,0.429-0.294,0.707c0,0.273,0.098,0.508,0.294,0.704
		c0.114,0.114,0.355,0.287,0.725,0.52c0.583,0.319,0.998,0.602,1.244,0.848c0.388,0.392,0.581,0.859,0.581,1.401
		c0,0.556-0.193,1.029-0.581,1.418c-0.388,0.391-0.856,0.585-1.408,0.585s-1.021-0.194-1.408-0.585
		c-0.388-0.389-0.581-0.816-0.581-1.281l0.608-0.157c0,0.401,0.136,0.736,0.406,1.005c0.271,0.269,0.597,0.403,0.975,0.403
		s0.703-0.135,0.975-0.403c0.271-0.269,0.406-0.597,0.406-0.984c0-0.378-0.135-0.702-0.403-0.971
		C653.668,384.608,653.374,384.394,652.932,384.111z"/>
	<path fill="#128BA6" d="M657.628,380.851v-2.857h0.615v2.857h1.367v0.615h-1.367v6.098h-0.615v-6.098h-1.367v-0.615H657.628z"/>
	<path fill="#128BA6" d="M662.53,386.306c0.579,0.528,1.267,0.793,2.064,0.793c0.856,0,1.588-0.303,2.194-0.909
		c0.077-0.077,0.15-0.157,0.219-0.239l0.649,0.232c-0.118,0.164-0.253,0.321-0.403,0.472c-0.733,0.733-1.62,1.101-2.659,1.101
		c-1.034,0-1.919-0.367-2.652-1.101s-1.101-1.62-1.101-2.659c0-1.034,0.367-1.919,1.101-2.652s1.618-1.101,2.652-1.101
		c0.889,0,1.666,0.267,2.331,0.8c0.109,0.091,0.219,0.191,0.328,0.301c0.041,0.041,0.08,0.082,0.116,0.123l-0.465,0.465
		L662.53,386.306z M666.453,381.514c-0.533-0.41-1.153-0.615-1.859-0.615c-0.853,0-1.581,0.302-2.188,0.906
		c-0.606,0.604-0.909,1.334-0.909,2.19c0,0.706,0.205,1.326,0.615,1.859L666.453,381.514z"/>
</g>
<rect x="2.546" y="-577.5" fill="#232121" width="1046" height="516"/>
<g>
	<path fill="#128BA6" d="M575.116-285.458c18.998-10.439,26.813-26.608,34.705-46.064c0.939-2.312,2.406-3.998,4.143-5.134V-475.23
		H477.793c-2.471,11.806-16.717,17.83-25.229,26.064v127.912c0,0,13.434,35.745,61.384,19.717l31.915,20.927h24.758
		C571.378-282.487,572.818-284.196,575.116-285.458z"/>
	<path fill="#232121" d="M491.123-395.293c-12.851-4.283-22.998-10.146-30.436-17.585c-7.442-7.441-11.162-16.459-11.162-27.054
		c0-10.373,3.72-19.296,11.162-26.774c7.438-7.477,16.455-11.217,27.053-11.217c10.521,0,19.539,3.718,27.055,11.16
		c4.133,3.984,6.989,8.455,8.567,13.416l-9.13,3.606c-1.354-3.68-3.572-7.063-6.649-10.147c-5.492-5.409-12.102-8.117-19.844-8.117
		c-7.741,0-14.354,2.726-19.84,8.175c-5.488,5.45-8.229,12.083-8.229,19.898c0,7.742,2.74,14.355,8.229,19.838
		c5.11,5.037,12.174,9.661,21.194,13.867c14.43,4.661,26.566,11.913,36.411,21.758c10.445,10.371,15.668,22.923,15.668,37.65
		c0,14.808-5.223,27.434-15.668,37.882c-10.446,10.445-23.033,15.666-37.765,15.666c-14.729,0-27.319-5.259-37.765-15.781
		c-8.343-8.342-13.338-18.037-14.994-29.085l9.582-3.495c1.054,9.773,5.225,18.301,12.513,25.591
		c8.491,8.494,18.714,12.736,30.664,12.736c12.022,0,22.283-4.242,30.776-12.736c8.493-8.489,12.739-18.751,12.739-30.777
		c0-11.947-4.246-22.169-12.739-30.661C511.077-384.921,501.943-390.856,491.123-395.293z"/>
	<path fill="#232121" d="M604.624-335.096c-1.879,2.407-3.908,4.736-6.088,6.989c-12.1,12.103-26.717,18.151-43.852,18.151
		c-17.059,0-31.641-6.049-43.738-18.151c-12.103-12.099-18.149-26.678-18.149-43.738c0-17.135,6.047-31.735,18.149-43.795
		c12.097-12.064,26.679-18.095,43.738-18.095c17.135,0,31.752,6.012,43.852,18.037c2.328,2.407,4.473,4.923,6.424,7.553v-15.67
		h10.148v86.015c0,16.61-5.902,30.812-17.697,42.612c-12.102,12.102-26.682,18.148-43.742,18.148
		c-17.133,0-31.754-6.047-43.854-18.148c-2.478-2.48-4.695-5.072-6.648-7.778l10.707-3.834c1.131,1.354,2.332,2.668,3.609,3.946
		c9.995,9.995,22.058,14.995,36.187,14.995c14.053,0,26.078-5,36.076-14.995C598.835-311.946,603.794-322.696,604.624-335.096z
		 M604.849-382.442c-1.953-9.693-6.613-18.224-13.979-25.591c-9.994-9.993-22.059-14.994-36.186-14.994
		c-14.131,0-26.191,5-36.185,14.994c-9.998,9.996-14.995,22.06-14.995,36.188c0,14.128,4.997,26.19,14.995,36.187
		c9.993,9.998,22.054,14.994,36.185,14.994c14.127,0,26.191-4.996,36.186-14.994c7.291-7.291,11.951-15.743,13.979-25.365V-382.442z
		"/>
</g>
<rect x="13.046" y="-268.04" fill="none" width="1024" height="158.768"/>
<text transform="matrix(1 0 0 1 335.3918 -221.165)"><tspan x="0" y="0" fill="#128BA6" font-family="'CaviarDreams'" font-size="60">Sylvain Guillot</tspan><tspan x="32.126" y="29.708" fill="#128BA6" font-family="'CaviarDreams'" font-size="14">Web Designer - Developpeur Web - Infographiste</tspan></text>
</svg>
