<?xml version="1.0" encoding="utf-8"?>
<!-- Generator: Adobe Illustrator 16.0.0, SVG Export Plug-In . SVG Version: 6.00 Build 0)  -->
<!DOCTYPE svg PUBLIC "-//W3C//DTD SVG 1.1//EN" "http://www.w3.org/Graphics/SVG/1.1/DTD/svg11.dtd">
<svg version="1.1" id="Calque_1" xmlns="http://www.w3.org/2000/svg" xmlns:xlink="http://www.w3.org/1999/xlink" x="0px" y="0px"
	 width="600px" height="600px" viewBox="0 0 600 600" enable-background="new 0 0 600 600" xml:space="preserve">
<g>
	<path fill="#232121" d="M302.535,384.053c4.375-9.372,6.574-19.65,6.574-30.846c0-20.094-7.148-37.287-21.427-51.574
		c-6.357-6.355-13.451-12.055-21.274-17.105c-2.638,8.32-3.978,17.176-3.978,26.584c0,23.766,8.409,44.057,25.227,60.861
		C292.342,376.661,297.309,380.672,302.535,384.053z"/>
	<path fill="#232121" d="M346.813,452.375c23.635,0,43.857-8.412,60.674-25.225c15.295-15.293,23.631-33.365,25.027-54.227
		c-3.16,4.047-6.574,7.967-10.24,11.754c-20.354,20.359-44.936,30.531-73.758,30.531c-14.624,0-28.161-2.648-40.618-7.935
		c-2.552,3.327-5.361,6.547-8.459,9.646c-4.091,4.092-8.387,7.687-12.87,10.825C303.255,444.151,323.332,452.375,346.813,452.375z"
		/>
	<path fill="#232121" d="M281.422,151.46c6.954,6.703,11.759,14.221,14.413,22.567l-15.358,6.068
		c-2.276-6.192-6.009-11.88-11.188-17.063c-9.23-9.103-20.353-13.655-33.367-13.655c-13.029,0-24.151,4.579-33.373,13.75
		c-9.229,9.162-13.842,20.323-13.842,33.464c0,13.024,4.614,24.146,13.842,33.367c8.591,8.474,20.478,16.25,35.641,23.322
		c6.604,2.133,12.912,4.601,18.944,7.378c4.659-8.272,10.592-16.01,17.815-23.208c20.351-20.291,44.872-30.436,73.567-30.436
		c28.822,0,53.364,10.116,73.718,30.34c3.918,4.044,7.767,8.281,10.767,12.704V224h17v144.377c0,3.705-0.106,7.338-0.456,10.901
		c12.458-23.74,19.558-50.793,19.558-79.511c0-94.147-75.79-170.463-169.308-170.463c-15.552,0-30.601,2.122-44.906,6.073
		C264.707,138.319,273.559,143.678,281.422,151.46z"/>
	<path fill="#232121" d="M273.054,440.043c-1.056-1.055-2.083-2.122-3.082-3.201c-10.475,4.28-21.823,6.43-34.05,6.43
		c-15.067,0-28.792-3.289-41.193-9.83c28.874,23.035,65.38,36.795,105.083,36.795c8.453,0,16.759-0.633,24.879-1.836
		C305.199,464.424,287.983,454.977,273.054,440.043z"/>
	<path fill="#232121" d="M348.516,397.191c23.766,0,44.104-8.4,60.919-25.219C421.694,359.715,429,345.5,433,329.313v-36.025
		c-3-16.305-11.181-30.648-23.565-43.04c-16.814-16.81-37.126-25.223-60.892-25.223s-44.066,8.413-60.872,25.223
		c-5.885,5.883-10.723,12.201-14.548,18.935c9.646,5.912,18.423,12.803,26.318,20.696c17.566,17.442,26.35,38.557,26.35,63.329
		c0,13.974-2.769,26.792-8.299,38.456C327.077,395.333,337.411,397.191,348.516,397.191z"/>
	<path fill="#232121" d="M147.186,367.805l16.116-5.875c1.764,16.434,8.781,30.785,21.038,43.039
		c14.29,14.289,31.483,21.43,51.583,21.43c20.22,0,37.474-7.141,51.76-21.43c1.848-1.848,3.57-3.747,5.179-5.694
		c-6.292-4.082-12.264-8.945-17.913-14.597c-20.356-20.35-30.527-44.869-30.527-73.566c0-12.675,1.97-24.525,5.906-35.551
		c-2.832-1.359-5.732-2.657-8.717-3.88c-21.615-7.212-38.688-17.071-51.2-29.583s-18.767-27.685-18.767-45.506
		c0-3.042,0.202-6.004,0.583-8.898c-25.994,29.964-41.747,69.165-41.747,112.074c0,28.208,6.811,54.812,18.859,78.245
		C148.424,374.69,147.706,371.287,147.186,367.805z"/>
</g>
</svg>
